<svg xmlns="http://www.w3.org/2000/svg" viewBox="0 0 680 538"><g id="France"><path d="M673.64,530.31c-3.16-1.7-3.77-4-3.08-7.2a50.9,50.9,0,0,0,1-5.89C673,501.51,671,487.1,656.88,477c-2.71-1.95-7-4.8-6.87-7.06.38-8.36-.81-16.55-1.07-24.82-.31-9.64-3.16-19.95,5.6-27.84.19-.17-.1-.87-.2-1.48-2.5,1.23-2.66,5-6.08,4.95-1.23-6.61-.5-13.07-.13-19.95.88,3.2,2,4.66,4.92,2.36.56-.45,1.75-.16,2.65-.13,7.4.33,13.22,4.49,19.31,8,1,.61,1.62,1.92,1,2.8-3,4.46-2.26,10.07-5,14.78-2.35,4-7.28,8-3.28,14.59,1.94-9.53,8.69-16.59,9.37-26.07.11-1.61.28-4.39,3.45-3.38,1,.32,2.17,1.24,2.73-.23s.65-3.57-.89-3.82c-4.81-.77-5.12-10.45-12.36-6.14-.35.21-1.35-.44-1.92-.85-2.47-1.83-5.32-2.13-8.25-2.17-2,0-4.09.1-5.53-1.63-1.85-2.21-4.17-2.42-6.85-2.27-2.13.13-4.66.23-6.38-.76a21.85,21.85,0,0,0-17.64-2.37c-2.61.71-6.71,1.11-7.46-3.07s4.23-10.29,7.75-10.41c10.1-.35,19.58,3.08,29.36,4.69,8.16,1.35,15.79,4.27,23.28,7.74,2,.91,3.38,4.46,5.75,2.68s0-4.73-.06-7.17c0-1.7-.62-3.32-2.38-3.93-3.32-1.15-3.26-3.76-3.36-6.6-.19-5.33,1.86-10.34,2.06-15.55.52-14.07.89-28.14,1-42.22.07-8.52-6.22-13.78-14.7-12.88-1.72.18-4,1.29-4.87-.85-1-2.31.4-4.12,2.55-5.26.91-.48,2.27-.79,1.69-2.26-.52-1.32-1.55-1.15-2.7-.7-4.45,1.74-9.08.74-13.21-.46s-4.89.36-5.09,3.54c-.14,2.22-.09,5.17-2.86,4.76s-2.44-3-1.2-5.25c.54-1,.53-2.42-.69-2.78-1.77-.52-1.94,1.05-2.14,2.32a3.25,3.25,0,0,0,0,.54c-.05,2.31.33,5.55-2.75,5.46-3.26-.09-3.14-3.24-2.91-5.9.18-1.94-.81-3-2.87-3.09s-4.31-.14-4.26-3c.05-2.6,1.92-5.26,4-5.2,7,.23,14.72-4.31,20.68,2.89.69.84,1.64,1.22,2.31.5,2.39-2.55,5.17-1.24,7.65-.73,6.07,1.24,12.06,2.84,18.06,4.37,1.09.27,2.21.78,2.86-.43a2.53,2.53,0,0,0-.61-3.43c-1.16-.83-2.54-1.91-3.83-1.91-5.91,0-10.82-4-16.73-3.94-3.68.06-4.77-2-3.93-5.35,1-4,.25-7.81-1-12.37-1.59,3.47-.72,6.17-.52,8.83.39,5.06-.31,3.5-3.75,5.19-5.36,2.62-7.48-.51-10.69-2.89a4.84,4.84,0,0,0-5-.93c2.71,5-.38,5.84-4.06,4.83-6.79-1.86-9.65,1.22-11,7.29a17.58,17.58,0,0,1-2,5c-4.7,8.15-2.19,15.49,2.45,22.58a5.61,5.61,0,0,1,.9,3.59c-.78,13,.44,26-1.91,38.92-.58,3.17-.31,6.49-.42,9.74-.15,4.8,5.11,2.81,7.78,6.34A76.1,76.1,0,0,0,592,381.62c3.68,1.1,6,.05,8.3-.92,4.32-1.86,8.81-1.73,13.34-1.54,1.26.06,2.51.09,3,1.67,1.39,4.17-3.65,11.56-8,11.41-3.88-.13-7.94.39-10.76,2.62-3.7,2.93-7.64,3.31-10.49-.6-5.94-8.15-8.31-18.54-16-25.66-.84-.78-.81-2.73-.81-4.15,0-3.61.2-7.23.37-10.84.07-1.38-.31-3.08,1.49-3.7,1.56-.53,2.59.42,3.78,1.42,3.22,2.72,5.81,6.29,10.09,7.93,0-1-.26-1.8,0-2.34,2.6-4.81.36-7.76-3.8-9.87-5.62-2.86-7.11-8.84-10.3-13.51-.79-1.15-1.83-3.08-.11-4.43,2.51-2,11.3-.42,12.88,2.41.54,1,.58,1.79,1.92,2a29,29,0,0,1,16.27,8.81c2.28,2.33,4.73,3.8,3.91,7.35-.88,3.83-2.52,7.3-6.64,8.5-1.45.42-3,0-2.51,2.34.53,2.63,2.73,2.78,4.14,1.86,4.13-2.7,5.33-.07,6.47,3.4a138,138,0,0,1,3.05-16.34c.4-1.51.68-3.62-.06-4.75-2.36-3.6-2.11-7.57-2.41-11.48-1.44-18.21-.8-36.46-1.17-54.7,0-2.42.5-5-1.88-7.53-1,4.63-.39,8.74-.38,12.82,0,1.77.18,3.6-1.8,4.75-4.34,2.52-14.25.86-16.88-3.34s-5.19-8.24-11.21-7.57a3.74,3.74,0,0,1-3-2.06c-1.51-4.65-6.14-2.8-9.06-4.47-1.14-.64-.91,3.18-3.34,3.35-.55,0,.47,1.54,1.23,1.81,9.68,3.42,18.28,9,27.28,13.73,4.39,2.32,10.3,2.22,11.85,8.48.12.47,1,.73,1.87,1.28.05-.95.07-1.46.09-2,.07-1.39-1.93-2.42-.79-3.9.27-.35,1.44-.32,2-.06,1.6.74,1.41,2.38,1.47,3.79q.8,18.39,1.5,36.77c.05,1.22.47,2.74-.77,3.5s-2.42-.21-3.45-.92c-8.41-5.76-17.77-9.65-27.08-13.56-3.45-1.45-4.69-3.33-4.62-6.88.16-7.92,0-15.84,0-23.77-.67,7.79-1.32,15.51-2.11,23.24-.4,3.9-1.41,4.43-5.07,2.94-8.75-3.57-17.32-8-27.29-7.37-4.28.29-10.68,4.57-10.77,7.63S532.32,331,535,330.29c5.63-1.43,10.15,1.69,15.18,2.49,5.3.84,5.54,2.17,3.17,7.09-3.25,6.74-8.27,12.52-10.57,19.75.86.36,2,.5,2.22-.37,1.58-6.71,8.75-10,10.09-16.91a4.5,4.5,0,0,1,3.77-3.53,4.35,4.35,0,0,1,3.91,1.44,3,3,0,0,1,.3,4c-2.1,3.08-3.26,6.95-7.22,8.6,3.29,3.86,4.71,3.62,5.84-1.31.63-2.77,1.47-7.62,5.17-7.05s2.17,5.12,2.19,8c0,3.78,1.31,7.93-2.9,10.81-1.2.83,0,2.76.69,4,8.06,13.45,15.08,27.48,23.09,41,4.89,8.25,8.23,17.59,13.24,25.94a430.48,430.48,0,0,1,21.19,39.57c3.7,7.93,7.2,16,11.31,25.1-5.69-1.71-9.3-3.32-10.35-8.36-1.28-6.17-6.38-10.28-9-15.86-3.07-6.63-5.28-13.8-10.21-19.48a25.67,25.67,0,0,0-3.24-3.46c1.51,6.77,5.86,12.17,8.62,18.31,1.1,2.46,1.09,3-1.26,4.81-5,4-8.13,2.48-11.43-1.88a7.43,7.43,0,0,0-5.23-3.46c-.24,2.9,1.94,3.38,3.63,4.44,5.52,3.44,6.11,7.17,2.41,11.33-1.83,2.07-3.79,2-5.83,1.36-7.44-2.28-13.91-6.71-21-9.81a3.53,3.53,0,0,1-2-3.55c.09-11.14.32-22.28-.09-33.4-.12-3.18,4.12-6.14.06-9.68-1.55,2.29-1.19,4.78-1.29,7.13q-.64,16.26-1.18,32.51c-.08,2.73-.6,5.35-3.9,3.3-7.08-4.39-16-4.61-22.52-10.27-1.83-1.57-1.63-2-1.07-4.06,1.29-4.71,4.14-8.75,5.26-13.48.35-1.47,1-3,2.59-3.16,3.08-.37,2.9-1.91,1.88-4.09-.52-1.1,0-2.06.83-2.91,3.78-3.89,7.37-7.84,6.64-13.94-.1-.85.9-1.83,1.46-2.89,2.15,1.87,4,5.67,6.43.68.58-1.18,1.23-1.53,2.42-.29,2.16,2.24,2.39-.25,2.25-1.36a7.34,7.34,0,0,1,3-7.07c.84-.7,1.87-2.11.79-3.33s-2.25-.05-3.3.58c-2,1.19-4.12,3.05-6.12.29-1.74-2.41-3-5.06.06-7.64.9-.76,2.2-1.92.78-3.13s-2.45.3-3.26,1.06c-8.07,7.65-16.9,14.62-22.21,24.76-.66,1.27-1.6,2.39-2.36,3.61A2.61,2.61,0,0,1,536,428c1.12-15.17-6.68-31.24,7.06-44.43l-1.66-.77c-2.14,3-4.36,6-6.4,9.13s-4.11,6.64-6.28,10.16c3.45-.86,5.23,0,4.7,3.68-1.13,7.89-1,15.92-1.05,23.8,0,9.32-5.84,16.15-7.89,24.44a2.68,2.68,0,0,1-3.89,1.84,66.27,66.27,0,0,1-11-5.69c-1.64-1.11-1.3-4.76-5.17-2.27-1.36.88-2-2.57-1.08-4.11,3.2-5.23,6.73-10.26,10-15.46,4.88-7.81,9.64-15.71,14.45-23.58l-1.1-.72q-5.12,7.65-10.23,15.3c-4.91,7.32-9.86,14.6-14.72,21.95-1.78,2.69-3.3,3.86-5.3.17-1.32-2.42-4.14-2.73-6.34-3.9-2.61-1.38-3-4.21-.26-4.72,8.18-1.51,9.2-9.52,13.88-14.12,2.77-2.73,4-6.79,6.52-9.92,2.22-2.73,2-5.67-1.19-7.83-11.31-16.7-23.06-33.06-36.92-47.79l0,0c-.18-3.27-3.1-4.7-4.71-7-8.6-12.39-17.28-24.72-26.64-36.56-1.46-1.84-2.82-3.58-6-3.47,1.9,4.2,5,7,7.57,10.12,7,8.53,15.22,16.68,12.41,29.42-.29,1.32.68,3.14-1,3.86-1.53.64-1-2.83-3.64-1.65,4.75,11.95,12.28,22.36,18.59,33.41h0c2,5.4,4,10.77,7.24,15.58a17.16,17.16,0,0,1,3.28,11.49c-2.32-.17-1.45-3.16-4-3.11-.9,2.35.05,4.64.82,6.91.39,1.15.44,2.74,2,3s2-1.32,2.39-2.45c.7-2,2.1-1.48,3.47-1.18,1.38,3.65.77,7.77,2.77,11.3.75,1.32,2.09,3.14.12,4.26s-3.69-.34-4.34-2c-1.61-4.21-5.15-6.82-7.78-10.17a3.69,3.69,0,0,0-3-1.8c1.44,6,4,11.48,6.37,17,1.46,3.4,2.29,6.58-.22,9.7,2.37-.87,3.83-.56,4.5,2.66,1.47,7.05,2.47,13.95,1.35,21.25-.47,3.09,1.51,6.52,2.14,9.83.32,1.71.82,3.8-1,5s-3.1-.33-4.47-1.06c-6-3.16-12.73-3.79-19.17-5.35-3.66-.88-5.43-2.09-5.28-6.44.79-22.05,1-44.11.23-66.18-.14-4-1.92-8.8,2.73-12.17.55-.39-1.09-3.79-1.95-6.56-2.12,2.2-2.87,4.14-2.71,6.54,1.74,26-.49,52.06-.3,78.09,0,2.71-.59,5.12-3.91,4-8.41-2.73-17.38-2.55-25.76-5.48-4-1.41-4.38-3.29-2-6.3a71.36,71.36,0,0,0,12.87-25.92c1.15-4.27,3.75-7.94,5-12.41,6.23-22.31,2.86-42.95-8.49-62.84-3.64-6.37-8.44-11.43-13.73-16.22-1.83-4.83-.22-10-1.57-15.16-3.94,3.45-5.34,8.23-7.53,12.55-1.37,2.71-2.45,5.61-5,7.62a2.42,2.42,0,0,0-.79,2.94c.35.78,1.11.81,1.84.54,4.93-1.84,6.21,2,7.88,5.11,3.34,6.19,3.05,12.88,2.62,19.58-.06,1-1.14,2.06.08,2.93a1.74,1.74,0,0,0,1.46-.12c1.62-.84,1.05-2,.38-3.16a3.33,3.33,0,0,1-.2-1.59c0-2.11-.58-5.16,2.12-5.35,2.41-.18,2.24,2.77,2.23,4.7a5.84,5.84,0,0,0,1.74,4.35c5.72,6.07,6.83,12.75,2.33,20-.24.38-.63.45-.33,1.21,4.74,12.15-1.86,21.85-6.88,32,1.94-6.88-2.94-12.95-1.77-19.6-1.51,8.22-1.58,16.49-1.59,24.75a16.34,16.34,0,0,1-2.68,8.69c-1.57,2.54-3.21,5-7.27,2.33-3.56-2.32-8.31,1.83-12.42-.9,2.05,2.66,5.12,3.44,7.79,4.9,1.63.89,5.31.86,3.51,4-1.5,2.65-2.82,7-7.53,5a13.45,13.45,0,0,0-6.79-1.42c-5,.58-6.65-1.52-6.45-6.46.58-14,.74-28.1,1.17-42.15.18-5.78-1.5-11.41-1-17.23.39-4.77,1.06-8.94,6.56-10.35.94-.24,2.18-.57,2.23-2.06-1.11-1.72-2.41-.47-3.1.19-4.46,4.26-4.55.81-4.78-2.53-2-1.25-2.63.63-3.66,1.68-7.78,8-15.38,16.12-24.51,22.61-.88.62-1.67,1.57-2.64,1.81-2.17.55-5,2.08-6.31-.72s1.16-3.73,3.51-4.87a57,57,0,0,0,14.68-10c8.46-8.08,16.9-16.23,23.87-25.59,4.7-6.31,8-13.75,13.48-19.5,4-4.19,4.86-9.09,5.67-14.54A109.38,109.38,0,0,1,419,294.1c3.58-7.18,11.06-8.37,16-2,5.49,7.16,11.35,14,17.46,20.58,11.88,12.77,22.66,26.46,34.07,39.6,4.81,5.53,9.14,11.58,14.55,16.64,1.12,1.05,1.67,2.75,3.59,2.58.4-2.86-1.81-4.15-3.6-5.51-4.05-3.08-5.59-6.78-5.36-12.09.73-17.17.86-34.36,1.19-51.54.12-6.28.27-6.38,5.95-4.27a21.22,21.22,0,0,0,5.24,1.27c4.18.41,8.71-2.78,9.1-6.73.4-4.23-2.67-5.85-6.19-7-6.08-1.91-13-2.65-14.66-11-2.79,2.47-4.86,4.42-7.06,6.22a5.57,5.57,0,0,1-6.47.88c-5.39-2.47-11.12-4.21-16.46-6.76-3.14-1.51-7.51-2.57-5.91-8.09s-1.61-8.86-7.41-8.15A13.41,13.41,0,0,1,446,258c-11.5-4.72-22.62,2.31-23.87,14.64-.5,5-1.26,10.23-3.35,14.67-3.28,7-6.92,13.82-8.92,21.27-1.23,4.57-3.17,8.83-4.59,13.3-1,3-3,3.48-4.83,1.66-3.07-3.06-7-4.57-10.66-6.24-3.94-1.77-5.15-4.25-5.08-8.33.25-15.74.16-31.49.39-47.23.25-17.23,1.39-18.08,18.95-15.81,2.7.35,5.52,1.17,8.66-1a13.24,13.24,0,0,0-2.47-1c-23.88-3.44-48.09-3.07-72-6.56-9.13-1.33-18.71-1.32-28-2.07-18.53-1.49-37.1-2.69-55.63-3.8-33.73-2-67.52-2.95-101.29-4.21-16.71-.62-33.45-.79-50.16-1.47-34.53-1.39-69-1.58-103.55.23v1.09c8.77,2.56,17.6.17,26.4.17,4.23,0,7.93.29,9.51,5.12,1.72-1.38.61-4.89,3.64-4.15,2.71.67,1.08,3,1.09,4.59a64.3,64.3,0,0,1-.5,8.66c-.52,4.14-3.89,7.23-4.24,11.65-.12,1.56-3.06,3.11-5.42,2.79-7.21-1-13.82,3-21.18,2.23-2.55-.27-5.62,3.42-9.3,2.61v3.25c2.93-.13,5.88-1.35,8,2.46,1.36,2.45,2.88.14,3.31-1.28,1.15-3.73,4.09-3.63,7.16-4.43,8.77-2.27,18-.26,26.66-3.65,4.66-1.83,4,4.12,7.1,5.78-.34-7.53,5-7.66,10.3-8.32,7.42-.92,14.82-2.12,22.17-3.48,4.94-.91,5.3-.3,5.44,4.69.14,4.82,1,9.61,1,14.51-.17,23.14-.07,46.28-.07,69.42l1.84,0c0-11,.57-22-.13-33-1.13-17.76.51-35.4.88-53.09.07-3.36,2.25-2.79,4-2.84,9.09-.26,18-1.25,26.7-4.18,1.19-.4,2.56-.36,3.44-1.39.75-.87,2.31-1.65,1.16-3.12-1-1.26-2.05-.7-3.29.08-8.85,5.54-18.82,5.76-28.78,5.67-3.94,0-6-5.68-4.08-11.23.81-2.38,1.6-4.6,0-7.64-2.12,3.18-1.76,5.92-1.54,8.74.77,9.65-6.94,15-16,11.17a3.23,3.23,0,0,1-2.08-3.39c0-4.7-.16-9.41-.32-14.11-.09-2.92,1.15-4.38,4.17-4.29q18.41.52,36.82,1c3.65,4.74,9.44-2,13.16,2.45,2.09-2,4.69-1.16,7.16-1.47,7.57-.94,15,.36,22.51.69.26,0,.5.47,1.62,1.62-7.53,2.71-14.63,5.28-21.76,7.78-.82.29-1.84,0-2.68.26-1.29.39-2.45,1.36-1.93,2.73s1.86.67,2.87.36c5-1.56,10.21-2.66,14.91-4.86,5.68-2.65,12.07-3.37,17.37-7.31,2.14-1.6,6.58-1.63,9.31-.61,7.47,2.78,14.94-.31,22.46,1.07,11.89,2.19,24.09,2.07,36.18,2.33,3.83.08,4.53,2.14,4.63,5.12.41,11.93,1.21,23.86,1.1,35.79-.23,22.62.73,45.2,1.48,67.79.35,10.85.27,21.71.45,32.57,0,1.17-.31,2.54,1.18,3.69.69-18.28.21-36.3-.48-54.31-.15-3.8-.27-7.59-.36-11.39q-.76-35.25-1.54-70.51c-.18-8.07.42-9.05,8.41-8.17,7.14.78,14.46.31,21.41,3,2.19.84,5,.15,7.51.05,9.63-.37,19,2.14,28.64,2.13,3.15,0,3.23,2.37,3.3,4.57q.46,16,.85,32c.17,7.4-.38,14.81,1.22,22.16.79,3.6.15,7.32-1.93,11.81,3.45-2,2.42-4,2.46-5.63.5-19.54.54-39.09-.1-58.63-.16-4.9,1.42-6.44,6.28-5.87,6.82.79,13.71,1,20.56,1.48,2.64.19,5.34-.19,7.53,2.2,1.87,2,3.79-.85,6-.61,8.44.93,16.92,1.49,25.39,2.22,3.66.31,5.61,2.3,5.52,6-.42,16.08.54,32.19-1,48.25a46.51,46.51,0,0,0-.09,8.67c.39,4.28-2,6.07-5.47,5.17-8.85-2.29-17.85-2.61-26.86-2.94-2.68-.09-2.17-3.09-4.26-3.91-2.53,8.55-10.85,5.52-16.37,7.39-5.25,1.77-10.73,7.61-17.43,2.8-.8,2.59-1,5,1.27,6.94,1.09.95,1.63,2.14.25,3.17-1.11.83-2.75.91-3.32-.42-1.22-2.81-2.6-2.17-4.58-.89-8.67,5.59-17,11.49-22.7,20.41-.5.79-1.05,1.7-2.06,1.39-1.57-.47-1.42-2-1.33-3.18,1.15-16.68-1.1-33.24-1.79-49.84s-.7-33.26-1.45-49.87c-.06-1.18.32-2.57-1.43-3.65-.84,5.33-.27,10.43-.07,15.51q1.22,31.44,2.5,62.87c.33,8.49.42,17,1,25.46.41,5.85-1.7,10.7-4.38,15.64-5.9,10.9-12.05,21.63-14.6,34.1-1.54,7.49-5.37,14.31-4.58,22.53.62,6.46,1.67,12.43,4.85,18.1,1.08,1.94,2.61,4.6.86,6.57-1.56,1.77-4.14.23-6.14-.22-3-.68-6.05-1.33-8.35-3.63a4,4,0,0,0-3.42-1.36c-4.84.76-9.31-.88-13.83-2.09A57.91,57.91,0,0,0,214,431.35c-5.76,0-7.2-2.18-7.32-8.3-1.2-60.61-.58-121.22-.83-181.84,0-2.05,0-4.1,0-6.15H204c0,4-.5,8.08.09,12,1.85,12.28.18,24.54.14,36.79q-.18,66.51-.54,133c0,1.81,0,3.62-.11,5.43-.25,6.43-.51,6.55-7,5.8-6.82-.8-13.65-1.66-20.5-1.93-4.24-.17-5.74-1.8-5.73-5.89.07-27.13-1.1-54.25-.43-81.39.08-3.43,0-6.87-.22-10.3-2.9,14.13-1.11,28.47-2,42.68-1,15.53-.31,31.11-2,46.62-.52,4.74-2.24,6.28-6.86,5.85-4-.38-7.89-.62-11.45-2.75-3.79-2.27-8.18-1.65-12.23-1.66-5.26,0-6.49-2.55-6.53-7-.14-12.66-.32-25.33-.64-38-.2-8.14-.62-16.27-1-24.39-.19-3.77.37-6.48,4.86-7.64,4.7-1.2,8.78-4.44,12.53-7.21,6.54-4.84,14.14-7.92,20.3-13.09,2.08-1.74,4.75-.84,6.66-3.61,6.81-9.91,12-20.57,16.9-31.47,1.83-4.11,3.71-8.18,5.41-12.35,5.29-12.94,1.13-25.76.4-38.66-1.6,2-1.14,4.3-1.15,6.48-.06,7.06-.14,14.12,0,21.17a20.69,20.69,0,0,1-1.49,9c-5.35,11.79-9.06,24.36-16.41,35.19-2,2.87-3.07,7.23-7.94,6.84l-.09.1c1,.93.59,1.66-.34,2.51a49.35,49.35,0,0,1-16.45,9.64,4.82,4.82,0,0,1,3-4.38c4.38-2.31,9-4.18,11.27-9.21.38-.83,1.69-2.37,3-1.28.64.53.49,1.25.09,1.91,4.59-6,5.34-12.52,1.87-19.19a10,10,0,0,0,0,2.11c1.77,9.76-4.86,14.4-11.52,19.09-5.58,3.94-12,6.63-17.18,11.13v0c-8,3.21-16.49,5.57-23.83,9.88-6.26,3.67-14.8,2.53-19.31,9.49-.24.37-1.2.75-1.4.58-7.13-5.71-9.44,6.27-15.62,4.28-.72-.23-.89,1.17-1,2.13-.31,3.38-3.28,3.19-4.54,1.84-4.65-5-9.42-3.2-14.38-1.08-4.3,1.84-6.12.9-6.54-3.82-.48-5.39-1.68-10.71-1.47-16.18.06-1.64.3-3.53-1.42-5.14,0-2.09-.08-4.19-.22-6.29h.4V271l-.93.07v51.66h.5c-2,9.61-1.74,19.31-1.69,29a2.46,2.46,0,0,1-.32.65,2.92,2.92,0,0,1,.08,1c-1,12.23-11.91,9.75-20.22,13.86-5.43,2.68-12.71,9.23-19.31,8.69-.46,1.41-1.67,2.66-3.81,3.72S2.32,382.59,3,385.43c.63,2.65-.91,4.05-3.35,4.63v17.78c8.35-.12,58.66,7.5,59.73,7.61,14.73,1.56,29.47,3.11,44.13,5.22,7.7,1.11,15.39,2.05,23.12,2.84,23.86,2.45,47.44,7,71.2,10.22,19.37,2.64,38.55,7,57.63,11.7,7.13,1.74,11.21,4.21,14.85,10.95a62.47,62.47,0,0,0,27.05,26.29A84.75,84.75,0,0,0,325,491c14.84,2,29.46,1.84,44.25,1.16a58.69,58.69,0,0,0,38.07-16.32c7.8-7.28,14.71-11.84,25.47-7,4.49,2,9.73,2.45,14.64,3.54,2.31.51,4.63.79,5.7,3.44.55,1.34,1.82,1.54,3.22,1.33,9.32-1.4,17.51,3.43,26.32,4.84,3.66.59,2.88,3.64,2.84,6.05s.24,5.15-3.49,5.63a8.46,8.46,0,0,0-7.41,6.28,4.78,4.78,0,0,0,2.7,5.41c2.42,1.19,5,2.77,7.53,2.84a59.66,59.66,0,0,0,14-1.29c3.6-.77,7.17-3.16,7-7.24-.17-3.59-3.63-5.75-6.91-6.66-2.27-.63-3.52-2-3.12-3.65,1.23-4.94-1.65-9.14-1.92-13.76-.19-3.16-.46-6.05,3.48-7.42,1.62-.56,2.45-2.1.07-3.52s-1.28-3.15.26-4.36a2.45,2.45,0,0,1,4,1.17c1,2.56,2.09,2.78,4.83,2.28,6.26-1.16,12.57,5.57,11.89,11.88-.29,2.69-.27,5.41-.32,8.12,0,2.5,0,5,0,7.65l-16.78-5.67-.36.9c3.45,1.75,6.73,4.34,10.38,5.06,6.44,1.28,7.87,5.81,8.61,10.94,1.18,8.22,1.85,16.52,3.94,24.59.89,3.48,1.72,7,2.58,10.47h3.26c-.53-1.93-1.07-4.06,1.31-5,2.9-1.17,6-1.15,8.54.87,1.33,1,2.14,2.75,3.18,4.15h7.6c-.95-5.93-5.12-10.49-6.69-16.27-1.63-6,.83-12.27-1.81-18.1-.38-.83.41-2.57,1.73-1.94,2.22,1.07,6.63,1.24,5.75,4.28-1.14,3.94,1.07,3.25,2.74,2.94,9.51-1.79,18.06,2.38,26.92,4.3,9.42,2,14.86,8.48,15.45,16.65,3.74,1.56,4,4.7,3.7,8.14H619.8c-.14-2-.25-3.93-.43-5.89-.09-1-2.27-2.4.44-2.63,1.65-.14,2.43-2.74,4.24-1.51,1.6,1.1.62,2.39-.1,3.75-2,3.71,4.07,3.19,3.46,6.28H643.7c.38-1.18,1.43-2.72,1-3.48-3.72-6.95,1.4-4.73,4.18-3.85,3.55,1.13,7.58-.16,11,2.14l-3.16,5.19h4.35c1-5.25,5.19-5,9.09-5.28s5.48,1.89,6.11,5.28h3.26A11.71,11.71,0,0,0,673.64,530.31ZM667,371.43a1,1,0,0,1,1.65-.57c3.17,2.47,2.16,6,3,10.24C666.87,378.17,666.57,374.89,667,371.43Zm7.63-26.88c.56,1.63-.32,4.21-3.08,5.75-2.65-6.52.91-12.72,1.2-18.93C673.1,335.78,673.12,340.21,674.61,344.55Zm-11.48-1.73c1.51-6.73.08-13.58,1-20.35.47-3.72,2.11-4.52,6.55-2.8-4.32,2.34-4.09,5.46-4,8.79.18,4.65-.1,9.33-.21,14,0,1.13-.28,2.32-1.56,2.48A1.62,1.62,0,0,1,663.13,342.82Zm.53,5c1.19-.35,1.73.55,1.68,1.46-.2,3.31.7,5.36,4.49,5.86,1.51.2,2.35,2.55,1.57,4-1.14,2.16-2.25-.3-3.4-.43-3.77-.42-5.77-1.95-4.55-5.82-.24-1.27-.45-2.32-.64-3.38A1.35,1.35,0,0,1,663.66,347.85ZM648.38,368.1c0-3.19-1.89-6.42.2-10.19C651.52,361.79,648.46,364.91,648.38,368.1ZM651,326.71h-.2q0,5.63,0,11.27c0,1.16-.16,2.33-1.54,2.38s-1.32-1.25-1.55-2.32c-1-4.71.1-9.62-1.46-14.28a1.92,1.92,0,0,1,1.21-2.64,2.87,2.87,0,0,1,3.45,1.91C651.34,324.12,651,325.47,651,326.71Zm4.38,49.73c-1.72.07-2.77-.33-2.8-2.31,2.16-1.87-1.25-6.2,3-7,1.3-.25,1.8,1.5,2.4,2.57C653.22,370.39,661.51,376.18,655.4,376.44Zm.86-12.63c-3.86-.56-2.26-4.91-2.8-7.69-.25-1.27-.41-3.42,1.68-3.17,3.39.41,2.65,3.16,2.35,5.88C656.88,360.27,658.46,364.13,656.26,363.81Zm1.51-13.57a2.48,2.48,0,0,1-3-.21c-1.51-1.56-.4-3,.49-4.36,2.21-3.3-.37-6.8.46-10.22.28-1.13-1.41-2.67.39-3.75a1.88,1.88,0,0,1,1.53.1c1.59.82,1.45,2.31,1.29,3.83-1.66,3.56.28,7,.57,10.51C659.62,348,659.49,349.39,657.77,350.24Zm2.38-30.06c0,4.18-1.12,7.24-3.84,7.43-2.13.14-1.68-3.3-1.38-5,.36-2-2.13-5.58,2.12-5.82A2.76,2.76,0,0,1,660.15,320.18Zm-7.7-20.51c1.84.67,5.52-1,5.26,2.54-.21,2.88-2.6,6.41-5.63,6.36-2.53,0-6.37-1.89-6.36-5.48C645.72,298.65,649.7,300.12,652.45,299.67Zm-10.81,48.27c-2.08-.45-2.06-2.71-2.24-4.45-.15-1.36.44-2.73,2-2.63,2.61.18,2,2.5,2.36,4.12C643.59,346.42,643.67,348.38,641.64,347.94Zm-3.42-32c3.38-.65,4.64,4.2,5.35,7.52.45,2.08.37,4.28.63,7.7-.16,1-1.1,3.06-.31,5.52.54,1.7-1.13,2.5-2.78,2.23s-3.25-1.38-2.54-2.82c2.16-4.43-1.9-8-1.16-12.28C637.88,321.11,634.56,316.63,638.22,315.92Zm-6.91,3.37c4.88-.43,2.37,4.81,2.7,7.19,1.23,8.64,2.24,17.27,1.45,26.17-.41,4.68-.65,9.55-.75,14.34,0,1.86,1.24,4.72-1.58,4.87-3.27.17-2.46-2.73-2.15-4.87a10.8,10.8,0,0,0,0-1.61c.12-4.87,1.08-9.66.94-14.57-.09-2.88-1.13-6.09-1-8.22.32-5.44-2.76-10.5-1.22-15.73C630.48,324.23,627.71,319.6,631.31,319.29ZM623,303.51c0,1.66-.46,3.68-2.36,3.74-2.36.08-1.77-2.17-1.94-3.65.45-1.53.19-3.79,2.3-3.81C623.31,299.76,623.06,302,623,303.51Zm1.21,19.6a8.42,8.42,0,0,1,1.52,9c-.06.17-1.19.26-1.36,0C622.21,329.23,623.46,326.17,624.25,323.11Zm.32,48c-1.92-3.46-1.3-5.8.44-9.09C626.71,365.61,626.54,368,624.57,371.13ZM420.32,349c-1.39,1.19-2.73.24-3.76-.81a19.78,19.78,0,0,1-3.09-3.7c-1-1.77-1.42-4.09-.08-5.58,1.78-2,2.85.86,4.36,1.31.31,1.88.48,3.72,2.3,5.06A2.27,2.27,0,0,1,420.32,349Zm86.76-58.68a3.46,3.46,0,0,1,3.52,2.71,1.89,1.89,0,0,1-2.06,2,3.53,3.53,0,0,1-3.74-3.14C504.63,290.58,506,290.3,507.08,290.34Zm-50.16-6.26c-.1-3.3,1.61-3.92,4-3,7.58,2.81,15.09,5.84,22.6,8.84,1.72.69,1.86,2.54,2.5,4,.88,2,1.73,4.1,4.45,4.06,3.73-.07,3.78,2.43,3.77,5.13,0,7.94,0,15.89,0,23.83h-.18c0,7.94,0,15.88,0,23.82,0,1.34.63,3.15-1.21,3.75-1.41.46-2.25-.86-3.06-1.8q-15.31-18-30.64-36a7.82,7.82,0,0,1-1.52-4.48C456.35,302.84,457.22,293.45,456.92,284.08Zm-3.11,26.42c-6.13-6.89-11.41-13-16.88-18.91-2.81-3-2.3-5.2,1-7.3a40.56,40.56,0,0,1,12-4.87c3-.73,5.45.43,5.67,3.39C456.27,291.74,456.83,300.73,453.81,310.5Zm-24.24-47.1c6.58-5.37,21.39-5.3,26.07,1-5.32-2.13-10.62-.32-15.9-.14-2.76.09-4,2.13-5.43,4-2,2.52-4.83,3.37-6.94,1S427.79,264.86,429.57,263.4ZM49.41,249.45c0,2.33-1.24,4-3.48,4s-3.53-1.8-3.52-3.95c0-6.47.26-12.94.49-19.4a2.85,2.85,0,0,1,3.2-2.91c1.78,0,2.53,1.28,2.66,2.83.3,3.58.48,7.17.66,9.87C49.42,243.69,49.43,246.57,49.41,249.45Zm15-17c-.21,2.33-.27,4.67-.39,7H64a68.46,68.46,0,0,0-.33,7c.22,4.12-1.4,5.73-5.65,5.73-6.94,0-7.35-.1-6.85-7.23A55.18,55.18,0,0,0,50.76,232c-.6-3.65,1-5,4.37-4.84,1.44.05,2.88.05,4.32,0C63.15,227,64.7,228.8,64.38,232.44Zm3.75,17.26c-2-.06-1.63-2-1.62-3.25,0-1.08-.14-2.91,1.63-2.68,1.55.19,1.92,1.82,2.07,3.27C70,248.32,69.52,249.74,68.13,249.7ZM130,337.23c1.39-1.89,2.8-3.92,5.22-4.5,3.1-.75,4.67-2.79,5.58-5.58a24.77,24.77,0,0,1,3.64-.21c2.49.19,3.25,1.22,1.54,3.47-3.67,4.81-10.1,5.25-14.37,9.13-.2.19-1.05-.09-1.42-.37A1.34,1.34,0,0,1,130,337.23Zm-113.1,65c-3.62-.63-8.9-1.77-10.82-5.35-4.83-9,13.54-13.8,18.73-15.3a169.81,169.81,0,0,0,18.71-6.15c1.8-.76,3.55-1.63,5.31-2.51-.38,11.12-.29,22.25-1.14,33.36-4.7-.71-9.4-1.39-14.11-1.9C28,403.76,22.38,403.17,16.88,402.21Zm72.58-16.43H88.7c0,7.76,0,15.53,0,23.3,0,3.44-1.12,4.24-4.59,3.34-5.15-1.35-10.41-2.32-15.66-3.29-5.58-.58-11.14-1.41-16.71-2.26-.05-10.16-.22-20.32-.37-30.48v-4.77a44.94,44.94,0,0,1,6.18-2.56A5.47,5.47,0,0,1,60,367.7a86.6,86.6,0,0,0,18.81-8c2.33-1.32,5.56-1.39,8.38-1.4,2.52,0,2.23,2.41,2.24,4.15C89.48,370.26,89.46,378,89.46,385.78Zm30.3-47.32c1.6-.78,3.94-2.4,5.12.25,1.25,2.82-.86,4.43-3.32,5.11-3.76,1-7.87.66-11.44,3C112.24,342.56,115.9,340.33,119.76,338.46Zm-17.9,9c.23-2.27,1.87-3.4,3.8-3.93.82-.23,1.54.69,1.45,1.78-.38,2.14-1.56,3.61-3.76,3.9C102.33,349.35,101.76,348.5,101.86,347.47Zm23.63,2.17c-1.58,20.56-.5,41.19-1.68,61.76-.38,6.61-.92,7.13-7.49,6.05-5.69-.94-11.37-2-17.1-2.64-3.56-.4-4.43-2.43-4.57-5.48-.4-8.48-.89-17-1.34-25.45h-.25c0-7.59.1-15.18,0-22.77-.08-4.08,1.12-6.19,5.42-7.85,7.38-2.85,15.2-3.91,22.55-6.68C123.6,345.59,125.76,346.05,125.49,349.64Zm232.7,62.22c-2.52-5.35-1.14-8.61,3.21-11.79,5.37-3.93,9.35-9.77,15.81-12.3,2.24-.87,1.23-3.14,2.92-4.32.13,6.88,4.69,13.91-1.39,20.43a1.52,1.52,0,0,0,0,2c5.62,8.62,2.28,18.15,1.66,27-.35,5,1.08,9.77.4,14.73-.56,4.07.79,6.2-6.13,6-7.64-.27-15.23-2.34-23-1.5-6.06.65-7.32-.8-7.31-7,0-6.53-1.38-13.17,2.63-19.38,1.25-1.93.9-5.33-.82-7.75-1.27-1.78-.79-3.22.32-4.92C349.85,407.94,351.34,407.66,358.19,411.86ZM371.7,376.5l-1.11-1,16.27-18.3A64.31,64.31,0,0,1,371.7,376.5ZM392.6,348c-12.29,12.06-23,25.51-34.69,38.14-.37.39-.62,1.05-1.06,1.19-2.39.8-4.71,4.59-7.05,2.09-2.54-2.72,2-3.38,3.13-5,8.16-11.66,19.27-20.75,28.35-31.58,3.67-4.36,7.73-8.45,11-13.12.8-1.15,1.47-2.07,3-1.22a5.07,5.07,0,0,1,2.56,3.2A82,82,0,0,1,392.6,348ZM390,326.52c.49-1.86.93-4.34,3.2-4.34,1.67,0,2.69,2,3.46,3.67-.61,2.52-2.88,2.39-4.65,2.81C390.47,329,389.59,328.11,390,326.52Zm-2.94,7c2.22.13,4.37.82,3.82,3.33-.63,2.85-3,5.54-5.55,6-2.19.37-.87-2.83-1.36-4.38C384.47,336.38,383,333.23,387.07,333.47Zm-4.25-15c1.88-.22,3.11.51,3.29,2.34-.05,2.17-1.11,3.08-3,3.15s-3.63-.57-3.64-2.87S381.19,318.62,382.82,318.43ZM367.58,315c2.47.64,6.6-.84,6.73,2.61s-4.15,2.23-6.46,2.8c-2.58.63-5.61-.29-5.45-3.43S365.79,315.56,367.58,315ZM314.3,345.59c.09-4.14,1-7.41,4.39-9.11,6.08-3,11.82-6.94,18.58-8.45,6.15-1.39,7.65-.33,7.81,5.78.18,6.67,0,13.35,1,20.1.32-5.86.66-11.72.95-17.59.5-10.17,1-11.07,11-10,5.78.59,11.72,0,17.39,2.09,4.31,1.56,6.07,3.72,6.84,8.78,1.73,11.38-5.55,17.58-11.85,24.51-6.15,6.75-13.16,12.7-19,19.8-1.06,1.28-2.39,3.44-4.31,2.65-2.48-1-.48-4-2.18-6.45-1.88,4.68-1.9,11.13-9.45,11-.93,4.3.85,11.42-8,11.95.67,1.83,2,1.51,2.89,1.47,7.36-.3,10.37,4.11,7.33,10.95-.85,1.9-1.89,3.72-2.85,5.58-3,0-5.3.94-6.94,3.88-1.37,2.47-3.59,4.49-5.58,6.56-1.7,1.76-3.52,4.61-6.1,3.48-2.16-.94-.28-4-.67-6-1.58-8-.28-16.06-.3-24.08,0-2.81-1.67-7.55,4.51-5.12a1.18,1.18,0,0,0,1.71-.79,1.34,1.34,0,0,0-1.5-1.74c-6,.6-4.9-3.39-4.76-7C315.86,373.73,314,359.7,314.3,345.59ZM340,445.07c1.36,1.34.93,3.5.09,5.08s-2.42.61-3.82.55c-4.35-.18-8.72.12-13.08,0-5.36-.11-6.55-1.64-3.69-6.15,4.38-6.9,5.43-15.51,11.53-21.56,1.35-1.34,4.39-1.41,4.06-4.31l2.76-1.23c5.93-2.51,6.29-2.4,6.11,4.53-.1,3.75,1.33,8.44-4,10.29C341.14,436.53,335.56,440.72,340,445.07Zm-24.91-2.71c-1.33.18-1.37,1.53-1.39,2.54a3.36,3.36,0,0,1-2.57,3.61c-1.45.43-2.94.57-4-.63-1.21-1.36.27-2.17.91-3.17a22.05,22.05,0,0,0,1.34-2.66c3.34-.12,5.27-2.39,7.09-4.78.73-1,1.21-2.56,2.78-1.8,1.73.83,1,2.39.56,3.76C319,441.78,318.7,441.89,315.05,442.36ZM301.91,336.79c1.73-.21,4.38-.48,3.78,3.2-.28,1.67.75,4.83-3,4.2-3-.5-5.73-1.51-6-5C296.42,335.35,299.34,336.93,301.91,336.79Zm-39.69,64.06c4-3,2.06-7.26,2.7-11,1.63.2,1,3.36,3.12,2.26,1.3-.67,1.14-2.22.62-3.41-3.68-8.48,1.54-14.48,5.87-20.62.93-1.32,2.06-2.47,2.46-4.07,1.12-4.53,2.08-8.75,7.1-11.28,2.86-1.44,2.19-6.72,6.2-8.37,1.91-.78,3.48-3.25,5.4-.43,1.62,2.38,2.57,6.07-.12,7.28-8.44,3.8-11.4,11.53-14.81,18.91-1.28,2.76-4.1-1.9-4.65,1.69-.61,3.91-2.56,7.8-2.32,11.61.37,6.05-4.35,10.58-3.91,16.69.13,1.85-4,3.41-6.74,3.45A1.51,1.51,0,0,1,262.22,400.85Zm15.28,47.41c-1.85.52-4.14,1.22-5.38-1s-.13-3.4,2.26-3.58c.78-.05,1.51-.43,1.15-1.32a2.66,2.66,0,0,0-2.93-1.94c-5.85,1.29-6.91-2.73-7.47-6.86s-4.75-7-3.43-11c-.07-6.61,2.56-9,7.26-7.43,1.06.36,2,.84,2.32,2,.36,1.43-.81,1.81-1.72,2.35a15,15,0,0,1-2.31,1.41c-4.33,1.63-4.26,3.43-.29,5.46.16.08.42.13.47.26,2.63,6.61,10.15,9.85,11.8,17.15C279.68,445.82,279.78,447.62,277.5,448.26Zm9.25-4.78c-1.26-3.71,2.54-4.59,4.68-6.91-4.94,2.83-6.86.23-9-3.67-5.11-9.41-6.77-19.07-4.39-29.58.65-2.88-.07-6.07-.05-9.12,0-1.13.45-2.25,1.87-2.09,1.24.13,1,1.35,1.05,2.15.09,2.16.06,4.33,0,6.49,0,1.26-.34,2.61,1.08,3.31a1.58,1.58,0,0,0,1.39-.36c1.11-1,.71-2.23.28-3.49-2-5.86-.89-11.77-.31-17.7,1-9.89,7.87-16.76,12.54-24.68,2.93-5,7.6-8.92,11.55-13.28.8-.89,1.54-2.22,3-1.86,1.86.44,1.72,2.1,1.77,3.51.44,13.14,1.74,26.33,1,39.41-.53,9.16.37,18.12.66,27.17.2,6.67-2.06,13.24.19,20.1,1.14,3.49-3.58,5.79-4.86,9.1-4.52,3.18-9.17,5.9-15.12,4.79C291.37,446.26,287.91,446.89,286.75,443.48Zm16.08,18.82c-2.84-.83-6.14-4.2-9.6-7.29a1.28,1.28,0,0,1,0-1.94,5.58,5.58,0,0,1,1.7-1c3.37,4.6,7.49-.64,11.15.87,2,.84,5.65.37,4.68,3.58C310,459.07,309.57,463.48,302.83,462.3Zm88.71,3.22c-1,.78-2.18,1.31-3.11,2.15-3.72,3.4-5.86,2.18-7.22-2.22-.3-1-.11-3.09-2-2.5-1.52.48-.89,1.95-.55,3.24,1.42,5.31,0,7.31-5.27,6.61A16.93,16.93,0,0,0,363,474.22a4.05,4.05,0,0,1-2.11.4c-11.35-1.07-23,1.54-34.07-3.51-3.82-1.74-8.4-1.87-12.65-2.65-4.72-.88-4.39-2.28-2.71-6.64,2.69-7,7.62-7.55,13.63-7.18,1.66.1,3.39,0,4.38,1.55,1.38,2.21,2.54,1.44,4.4.43,4.27-2.33,8.28-.12,9,4.8.31,2,.27,4,2.43,5.52.36-.42.55-.54.58-.69,1.78-9.58,1.77-9.53,11.82-8.78,4.51.34,9.29-.43,13.48.85,6.23,1.89,12.43.76,18.6,1.42,1.44.15,3,.16,3.69,1.75C394.28,463.44,392.81,464.5,391.54,465.52Zm25.82-11.91c-.92-3.84-.26-6.53,4.68-6.87,3.2-.22,4.7-3.31,6.4-5.85-3,6.52-5.8,13.12-11.56,18.95C416.94,457.07,417.81,455.46,417.36,453.61Zm79.41-56.54c-1.74-1.53-1.26-3.65-1.62-5.54a2.5,2.5,0,0,1,1.63-3.06c1.19-.39,1.81.77,2.54,1.58,3.24,3.65,4.86,8.74,9.68,11,.45,2.13.63,4.26-.62,6.2-3.3,5.09-6.69,10.13-10,15.23-.55.87-1.17,1.44-2.13,1.23s-1.29-1.24-1.19-2.13c.73-7.05-2-14.44,2-21.15C497.86,399.08,497.86,398,496.77,397.07Zm-2,2c-.21,1.43-1.75,1.61-3,1.54s-2.55-.67-2.63-2.14c-.1-2,1.68-1.31,2.76-1.65C493.21,397.18,495.1,397.08,494.81,399.1ZM473.24,386a5.54,5.54,0,0,0-4.38-4.6,22.5,22.5,0,0,0-4.27-11.9c-4.92-7.3-8.31-15.11-7.84-24.16.1-1.88-1-4.52,1.19-5.37,2.46-.94,3.5,1.69,4.84,3.32,2.87,3.51,4.48,8.22,9.27,9.92,3.18,8.65,9.9,14.77,15.62,21.56,2.37,2.81,4.46,5.68,5.37,9.21,2.08,8-.39,11.26-8.31,11.15S475.14,393.79,473.24,386ZM484,411.5a32.06,32.06,0,0,1,.35-3.68,2.53,2.53,0,0,1,2.62-2.28c1.79,0,2.52,1.35,2.54,2.9,0,2.45,1.3,6-.8,7.05S485.66,412.92,484,411.5ZM487.32,504c-1.73-.13-1.66-2.1-1.52-3.5s.61-3.18,2.39-2.95.95,2,1.21,3C488.92,502,489.15,504.08,487.32,504Zm7,.44c-.43.86-1.74.59-2.17-.27-1.1-2.18-1.18-4.31,1.22-6.26C494.82,500.07,495.36,502.2,494.29,504.39Zm.19-53.4c-1.29,12.44-.7,25.09-3.65,38.08-2.86-9.88-1.59-19.31-2.78-28.54a19.11,19.11,0,0,1,1.25-10.12,2.71,2.71,0,0,1,2.91-2A2.24,2.24,0,0,1,494.48,451ZM544.17,423a82.85,82.85,0,0,1,12.48-14.6c.93-.86,1.77-2,3.21-1.06,1.15.75,1.47,2,1.68,4.08-1.76,2.65-3.06,6.75-7.39,7.46s-4.63,3.18-3.14,6.1c1.06,2.08.86,3.3-.76,4.59-2.19,1.75-3.32-.56-4.46-1.51C544.39,426.92,542.63,425.33,544.17,423Zm-21,72.55c-2.58-3.34-1.78-7.24-2.12-11.78-1.08-3.22,1.39-6.91,1.16-10.88-.08-1.41.94-2.71,2.42-1.71s2.71,2.19,4.76,1.86c.73-.12,1.31,1.31.87,1.56-4.65,2.66-.53,5.34.3,7.49,1.27,3.3,1,6.75,1.94,10.05.55,2,2.78,4.89-.61,6A7.51,7.51,0,0,1,523.21,495.59Zm10,33.66c-3.39.25-6.14-.37-6.64-4.44-.69-5.7-1.49-11.39-2.08-17.09-.19-1.75-1.41-4.48,1.64-4.75,2.65-.23,6.16-1,7.4,2.64,1.14,3.34,3.12,6.57,2.13,10.93.35,2,.88,4.4,1.19,6.88C537.22,526.28,537.09,529,533.21,529.25ZM535.3,456c-2.59-.44-4.66,3.62-7.41.8-2.93-3,.69-4.88,1.47-7.12,2.54-7.35,5.91-14.29,12.62-18.89,2.11-1.45,3.7-1,4.6,2.09-1.6,2.87-2.84,6.48-5.23,9A15.8,15.8,0,0,0,537,453.1C536.93,454.27,538.05,456.45,535.3,456Zm31.78,48.39a3.52,3.52,0,0,1-3.55.73,94,94,0,0,1-24.5-9.69c3.29-2.64,5.61.41,8-.53-.29-2.2-2.41-1.92-3.56-2.86-1.54-1.28-4.92.4-5.09-2.88-.2-3.79-.2-7.81,1.5-11.14,1.14-2.23,4.66-2,6.4-.68,5.76,4.38,12.54,6.81,18.65,10.48C569.05,490.26,570.39,500.93,567.08,504.37Zm46-28.92c4.29,4,4.84,9.19,6.75,14.36C610.86,483.45,610.05,481.71,613.12,475.45Zm-35.3,7.47c2.23,1.1,4.45,2.21,6.69,3.29,1.31.64,3,1.25,2,3.06a2.79,2.79,0,0,1-4.62.55,73.92,73.92,0,0,1-5.05-5.94Zm14.07,21.76c-.91,1.53-2.14,3-1.26,5,.69,1.55,1.35,3.22-.24,4.43-1.35,1-2.89-.1-4-.74-4.45-2.49-9.44-3.86-13.09-8-3.13-3.54-2.2-7.29-2.21-11.09,0-1.38,1.26-1.58,3.38-1.45,5.43,2.32,11.92,4.5,17.75,8.1C593.91,502,592.63,503.44,591.89,504.68Zm1.89-8.91c-1.22-1-4.34-.16-3.52-2.93.69-2.34,3.34-1.51,5.77-2.11,6.83,1.85,13.58,5.14,20.21,8.57,2.18,1.13,2.69,3.9,1.23,6.16-1.62,2.5-3.52.89-5.07-.25C606.72,501,599.32,500.25,593.78,495.77Zm27.55,24.66a3.67,3.67,0,0,1-3.08,2.69c-4.23.84-7.64-1.35-11.1-3.24-1.4-.77-2.66-2-4.15-2.38-3-.84-5,0-4.45,3.73.21,1.45,2.85,3.9-.25,4.25-2.92.32-1.66-2.8-1.79-3.91.06-7.9.08-7.47,7.18-7.7,6.07-.19,10.75,3.55,16.32,4.56A1.56,1.56,0,0,1,621.33,520.43Zm13-36.81c-3.18,0-2.82-3.6-2.82-6.07s.12-5.83,3.39-5.67,1.53,3.74,2.35,5.38C636.71,479.92,637.66,483.65,634.32,483.62Zm-10.94,20c.14-2.06.94-3.79,3.6-3.85,3.45-.08,7.9,3.91,8,7.71-.16,2.33-.71,4.9-3.8,5.45C628.35,513.48,623.14,507.26,623.38,503.66Zm14.76,24.93c-.2,2.67-.54,6.09-4.12,6.83-2.23.47-5.75-4.89-5.77-8.06,0-2.67,1.67-2.79,3.75-2.87C634,525.78,638.48,524.06,638.14,528.59Zm-.24-61.73c-1.5.18-3.82,2.69-4.09-.54-.23-2.68-2.55-6.38,2.08-8.32,2.16-.9,1.2-3.52,1.32-5.38.25-3.84-1.24-7.93,2.41-11.18,1.26-1.12.16-2.46-1.34-2.61-1.28-.12-3.54-.56-3.2,1.62,1.3,8.46-4.27,15.46-4.68,23.52,0,.39.24,2-.64,1.09-2.07-2.17-4.4,3.39-7.09-1.38-7.81-13.83-12.51-28.07-11.62-44.11.32-5.81-.49-11.69-1.07-17.54-2.34,10.77,1.7,21.88-2.49,32.89C604,428.36,600,422,597.11,415.17c-1.41-3.31-4.5-5.74-4.66-9.64-.07-1.59-1.07-3.71.72-4.41,4.27-1.66,8.93-4.26,13.09-3.73a60.68,60.68,0,0,0,13.14-.06c8.93-.81,10.06-.52,12.33,7.14.26-.18.66-.31.75-.56.78-2-.5-5.54,1.43-5.91,3-.57,6.32.53,9.46,1.16,1,.21,1.59,1.21,1.46,2.55-1.32,12.84,1.89,25.42,2.19,38.16.19,7.95,0,15.91-.3,23.85-.23,5.54-2.87,6.79-7.54,4C638.74,467.41,638.28,466.81,637.9,466.86Zm2.68,16.56a58.32,58.32,0,0,1,2.32-7.63,2.57,2.57,0,0,1,3.12-1.5,3.37,3.37,0,0,1,3,2.7,12.72,12.72,0,0,1-.68,7.24c-2.07-1.24-2.13-1.27-3.81.76-.71.86-1.33,1.85-2.55,1.53C640.37,486.1,640.33,484.55,640.58,483.42Zm12.79,42.91A8.62,8.62,0,0,1,642,518.27a33.65,33.65,0,0,1,0-3.76c.23-2.11,1.17-3.24,3.05-1.32,2.27,2.32,5.34,2.73,8.18,3.47,2.45.63,5.23.37,5.46,3.87C659,524.26,656.08,525.5,653.37,526.33Zm10.27,3.18a2,2,0,0,1-2-2.17,3.42,3.42,0,0,1,2.57-3.64c1.74-.4,1.81,1.25,2,2.58C665.93,527.73,665.92,529.59,663.64,529.51Zm5.91-16.26c-.22,1.7-.73,3.35-2.79,3.37a5,5,0,0,1-4.93-2.7c-1-2.09-.12-3.43,1.9-4.21,1.22-.47,2.58-1.06,2.14-2.61-.56-1.94-2.38-1.28-3.69-1.15a24.39,24.39,0,0,1-10.61-1.53,6.93,6.93,0,0,1-3.9-3.48c-3.11-5.61-1.84-10.32,2.61-14.51.46-1.68-.23-2.35-1.84-2.19.73-.45,1.79-.84,1.93-1.44,1.63-6.87,4.61-2,7.94-1.52-2.71,2.9-6.87,1.62-8,5.15,1.41,0,3.21.56,4.22-.1,5.92-3.84,8.9.2,10.86,4.46C668.6,497.83,670.55,505.33,669.55,513.25Z" style="fill:#3b5556"/><path d="M129.74,168.06a13,13,0,0,0,2.08,0A14.5,14.5,0,0,0,129.74,168.06Z" style="fill:#3b5556"/><path d="M20.08,216a408,408,0,0,1,53.11,2c12,1.2,24-1.55,36,.35a4.42,4.42,0,0,0,1.06-.17,145.56,145.56,0,0,1,35.7-.2c10,1.14,20,2,30,3.06,7.31.79,15.36-.62,23.09-.17,12.09.7,24.26.59,36.21,2.92,15.75,3.06,31.58,5.66,47.64,5.66,30,0,59.91.58,89.84,2,3.74.17,7.58-.11,11.21,1.57,1.21.56,3.11,1,4.39-.54-.57-1.48-3.54-.82-2.84-2.69.64-1.71,2.79-2.22,4.67-2s3.67,2,5.11-1.08c-4.62-2.15-8.62-1.52-12.58,1.4-2.53,1.87-6.48,2-5.76-1.7.92-4.82-1.8-9.18-.42-13.63,1.21-3.9.24-7.57-.26-11.35-.33-2.45-1.13-5.5,1.53-6.92s4.94.66,7,2.64c-1.11-2.32.53-6.19-3-6.75a16.25,16.25,0,0,1-8.16-3.86c-2.28-1.92-3.46-1.39-4.1,1.31-.67,2.86-2.63,3.58-5.31,3.42a32.61,32.61,0,0,0-5.41.15,2.08,2.08,0,0,0-2,2.63c.32,1.51,1.39,3.11,3,2.06,3.37-2.21,3.52.37,4.22,2.38,1.32,3.76,3,7.45-.68,11a3.76,3.76,0,0,0-.34,3.57c2.74,4.49.31,8.71-.2,13-.34,2.85-1.87,3-4.18,2.58-9.94-1.59-20.17,1.11-30.07-2.05-1.26-.41-1.89-.53-1.88-1.74,0-1,0-2.9,1.36-2.12,3.6,2.11,7.32-2.5,10.77.54.67.6,1.82,0,2.39-.74.84-1,.35-2.12-.46-2.9a8.46,8.46,0,0,1-2.93-6.18,32.94,32.94,0,0,1,6.45-20.73c.89-1.2,2.67-2,1.9-5.16-4.78,6.87-10,12.45-10.68,20.55-.17,1.92.17,4.88-2.29,4.71s-1.79-3.24-1.68-5c.23-4,1.08-7.88,1.41-11.84.46-5.66,3.07-9.4,8-12.57s10-8.11,10.35-13.72-1.75-12.11-4.88-17.87c-3,3,1.14,6.71-1.71,9.33-2.68,2.46-1.71,4,1.08,5.81,3.8,2.42,3.65,5.31-.26,7.93-2,1.33-4.1,2.56-5.05,4.75-1.9,4.34-6.4,6-9.23,9.54-2.66,3.29-7.94,1.86-11-1.3-3.43-3.55-6.22-7.56-10.67-10.37-3.75-2.38-8.25-6.33-3.2-12,1-1,.19-2.46-.43-3.56-1.22-2.19-1.09-4.56-1-6.9.26-5.3,4.45-7.85,8.37-4.52,3.63,3.09,5.82,1,8.42-.66,3-2,2.62-4.55,1.5-7.64-2.41-6.67-.7-9.64,6-10.66,2.88-.43,3.93-1.21,3.67-4.45-.37-4.47.2-9,.34-13.52.09-2.76.95-4.39,4.16-2.74-3-8.72-.45-17.44-1.22-26-.14-1.53-.3-3.54,1.36-4.42,2.1-1.11,1.89,2.36,3.77,2.24,3.47-4.18,1.62-6.75-2.62-8.62A14.19,14.19,0,0,1,336.09,73c-.66-.46-1.9-.8-1.29-2a1.82,1.82,0,0,1,2.27-1c1,.34,1.88.86,2.86,1.32,2.17-5.92-3.25-4.3-5.21-5-2.79-.94-2.72,2-2.72,3.94,0,1.43-.21,3.12.45,4.24,2.7,4.52,1.76,9.45,2.19,14.27,1.06,11.81-4,23-3.05,34.83.16,2-.91,3.33-3.23,3.45-8.64.43-13.29,5.76-15.78,13.38a10.75,10.75,0,0,1-5.8,6.58c-8.71,4.66-13.49,15.35-5.23,25,.92,1.08,2.61,2.38.52,3.4-3.86,1.9-9,4.87-12.13,1.42-4.88-5.43-12.39-3.45-17.37-8-1.54-1.41-5.18-.73-5.25-4.17s4-.64,4.88-2.87c-4-5.38-3.92-7.27,1.51-11.92C275.87,148,275.52,146,275,144c-.29-1.14-2-1.62-2.35-.17-1.45,5.58-6.6,8.84-8.09,14.72-1.67,6.57-1.25,9.84,5.48,12.17,4.94,1.71,8.06,4.42,6.91,10.41.75-3.24,2.15-6.57,5.47-5.27,4.1,1.62,7,6,12.16,5.69.25,0,.71,1.52.85,2.37.86,5,2.22,9.66,7.42,12.35,1.28-3.56.71-7.21.85-10.77.09-2.4.95-4.33,3.25-5.14,2.46-.87,3.35,1.12,4.63,2.72,2.88,3.6,5.4,7.87,9.95,9.45,4.74,1.64,5.86,5.11,4.67,9-2.05,6.6-1.62,13.47-2.95,20.15-.71,3.57-1.9,4.74-5.13,4.41-2.33-.24-4.67-.49-7-1-9.5-1.94-9-2-9.21-11.57-.11-5.35,2.44-12-4.56-15.74-1.78,3.18-.77,6.78-1.54,10.1-.41,1.77-.78,3.19-3.1,2.61-3.85-1-7.71-1.9-11.58-2.84a3.26,3.26,0,0,1-2.35-2.68c-1.31-4.59.67-7.06,5.54-6.66,1.86.15,4,.6,4.17-2,.14-2-1.59-2.65-3.41-2.63-.9,0-1.79.16-2.69.24-1.6.16-3.7.75-4.32-1.09s1.3-2.82,2.6-3.75a5.69,5.69,0,0,1,3.36-1.52c2,0,1.67-1.61,1.05-2.68s-1.63-.88-2.65,0c-1.75,1.54-3.8,2.74-5.5,4.32-1.2,1.12-2.43,3-4,1.83-1.82-1.38.25-2.8,1-4.12a4.52,4.52,0,0,0,.61-1.5c.16-1.18,1.31-2.67-.06-3.47s-2.2.58-3,1.62c-1.8,2.41-3.27,3.35-6.6,1.24s-7.94-1.58-12-3c1.86,1.76,2,4.86,4.54,5.36,4.9,1,3.81,3.73,2.44,6.74,1.95-.31,4.1.15,4.29,2.08.33,3.36-.65,6.87-.29,10.23.45,4.31-2,5.86-7.13,6.95,8.88,1.25,15.6,4.23,22.9,3.48a23.16,23.16,0,0,0-5.75-1.37c-3.09-.34-4.88-2.26-4.45-5,.48-3.08,3.87-2.39,5.35-1.67,4.17,2,8.69,2,13,3.2,5,1.38,7.45,5.52,5.88,11.2-1,3.48-4.73,2.47-7.45,2.56-17.4.59-34.51-1.55-51.67-4.38-12.59-2.07-25.38-3.59-38.26-2.88-4.33.24-8.69.12-13,0-2.88-.09-4.64-1.64-5.07-4.63-.4-2.83-1.65-6,1.23-8a5,5,0,0,1,6.9.76c1.34,1.42,3.36,1.15,5.16,1.17q13.56.12,27.14.17c3.07,0,6.15,0,9.22,0-2.71-.93-5.61-.75-6.91-4.26-.49-1.31-2.81-1.52-4.47-1-10,3.12-20.11.17-30.17.32-1.35,0-2.71-.49-2.43-2.16a1.77,1.77,0,0,1,2.58-1.22c7.46,3.06,12.87-3.25,19.45-4.22a1.45,1.45,0,0,0,1.13-2.08c-.56-1.34-1.45-.61-2.13-.12-1.63,1.18-3.16,1.13-5.24,1.13-5.62,0-11.23,1.08-16.9-.07-1-.21-2.05,2.82-3.38.49a9.83,9.83,0,0,1-.43-7.92c.62-2,2.31-.93,3.64-1.1,3.39-.41,6.89,1.54,10.24-.1-.4-2.37-6.72-2.58-2.34-5.44,4.91-3.2,5.16-9.91,10.63-12.32.62-.27.91-1.53,1.14-2.39.37-1.39.82-3-1-3.74a2.55,2.55,0,0,0-3.6,1.46c-1.52,4.8-4.46,2.83-7.34,1.83-1.75-.6-3-3.13-6-1.5,2.25,1.73,4.13,3,5.82,4.53,1.22,1.1,3.55.88,3.56,3.49,0,4.95-3.31,6.35-7.14,7.76s-5.81-.68-7.07-3.67c-1.07-2.54-2.34-4.38-5.93-4.17,1.33,2.94,3.67,5.65,2.52,8.68-1.3,3.41-.75,6.67-.62,10.08.27,6.86,2,13.64,1.18,20.55-.19,1.72.35,3.86-2,4.55-7.47,2.21-15.74,3-22.32-.06-4.85-2.24-8.24-2.62-12.71-1-.84.31-3,.81-2.55-1.4,1-4.7-1.34-8.8-1.57-13.26a66,66,0,0,0-1.26,9.76c-.25,3.12-1.51,4.68-5.07,4.89-15.06.91-30.11,1.67-45.21,1.23-10.42-.3-12.07-2.85-7-12.07.83-1.53,2.94-2.89,1.68-4.61s-3.45-.48-5.12-.2c-7.56,1.28-14.64,1-20.72-4.56-1.58-1.44-2.42-4.33-4.66-4.29-6.23.12-9.38-4.58-13.53-7.77-3.79-2.92.15-7.89-3-10.95a13.25,13.25,0,0,1,1.13-1.12c3.24-2.49,3.23-8.49-.34-10.44-2.06-1.13-2.81-2.59-1.83-4.23s2.92-1,4.38-.14a28.56,28.56,0,0,1,3,2.37c1-3.19,2.4-6-.8-8.59-1.92-1.54-1.48-3.81-.12-5.34,1.81-2.06,2,2.2,4.26,1.08.1-4.72.49-9.55,7.21-10.26,1.75-.18,2.17-2.41.13-3.63-2.26-1.36-1.44-3-.63-4.65,2.69-5.54,6.41-3.87,9.95-1.07,1.78-1.7-.58-3.85,1.79-5.46,5.52-3.75,6.94-10.36,9.4-16,2-4.67,3.57-6.13,10.09-5.55,4.71.41,4.23,4.1,4,6.87-.27,4.1.19,6.68,5.14,6.6,2.55,0,3.84,2,3.93,4.41.1,2.79,1.19,6-.86,8.27-1.84,2-2.6,3.11-.91,3.54,8.25,2.12,4.52,6.53,2,10.35-2,2.9-1.91,4.79.51,7.53,4.32,4.87,3.54,12.25-1.16,15,3.41-.4,4.84,4.33,9.27,2.64-3.32-.84-4.32-2.91-3.88-5.69,1.31-8.19-4.63-16.4.16-24.66.87-1.5-.49-3.45-1.19-5.13-2.95-7.12-.39-11.4,7.28-11.63,10.13-.29,20.27-.08,30.39-.31,3.58-.08,4.25,1.64,4.17,4.65-.34,13.36-.73,26.73-.79,40.1,0,4.42-1.1,7.31-5.44,7.69,4.74.37,4.93,3.74,4.31,8A114.86,114.86,0,0,0,135,189c-.11,3.33-1.23,4.93-4.8,4.87-4.51-.08-9,.38-13.55.39-7.23,0-14.5-.75-21.65-.1-6.94.62-7,1.2-7.72-5.17-2.25,1.52-4.66,3-3.47,6.36.79,2.18,2.81,2.63,4.91,2.55,15-.52,29.92-1.07,44.88-1.57,2.11-.06,3.34-.54,3.36-3.07,0-5.78.61-11.56.56-17.33-.05-5.2,1.38-8.52,7.49-7.76-6.36-.9-6.59-.91-6.3-7.54.55-12.46,1.5-24.9,2-37.36.13-3.14,2.46-6.73,1.52-8.79-2.55-5.63-.89-11.06-.79-16.51.08-4.86,1.76-5.57,6.24-3.61,2.83,1.24,5.62,2.71,9.06,1.25-1.5-2.4-3.78-1.93-5.55-2.61-5.09-2-8.79-4.59-8.19-11,.37-4,.38-8.26-1.83-12.14a4.18,4.18,0,0,1,.43-4.64c1.39-1.46,3.14-.35,4.56.21a47.17,47.17,0,0,1,8.65,4.38c8.1,5.32,9.27,14.74,13.36,22.39,1.25,2.34,2.41,5.14,1.09,8.32-1,2.36,1.85,2.32,3.08,2.63,2.3.57,1.29-1.43,1.41-2.47a11.2,11.2,0,0,0-1.26-6.28c-2.64-5.49-5.95-10.64-7.55-16.64-1.53-5.76-6.4-8.59-11.32-10.88-5.56-2.59-11-5.07-14.64-10.38A9.37,9.37,0,0,0,134.2,53c-10.59-3.73-21.44-5.16-32.53-2.76-2.56.55-5.47.18-7.6,2.38-13,13.4-29.62,18.44-47.53,20.52-1.34.16-3.17.25-3-1.24C44,68,42.29,63.46,44.84,60.33c3.73-4.56,1.15-7.95-1.24-11.07-2.74-3.58-5.27-7.29-7.92-10.88C31.53,32.76,28.14,26.31,22.58,22c-3.26-2.54-4.69-5.25-4.62-9.1,0-1.82.37-4.07-1.53-4.88A27.23,27.23,0,0,0,2.66,5.82,1.66,1.66,0,0,0,1,7.52,1.6,1.6,0,0,0,2.61,9.26c1.26.13,2.53.19,3.79.24,8.84.37,9.23.85,7.81,9.59a15.17,15.17,0,0,0-.57,3.2c.35,6-.63,10.6-8.38,9.6-1.69-.22-2.51,1.23-2.34,2.94s1,2.31,2.85,2.41c9.41.49,10.42-.19,11.51-9.34.37-3.07,1.44-3.48,3.66-1.47a20.11,20.11,0,0,1,3.15,2.95c4.79,6.7,9.19,13.68,14.55,20,1.66,1.94,4.2,4.46,2.55,7.15s-4.92,1.51-7.57,1.4c-8.86-.38-17.71-.84-26.57-1.22-2.12-.09-5.19-.32-5.13,2.27C2,61,5.12,60.49,7,60.61a8.08,8.08,0,0,0,1.63,0c9-1.16,18,1.15,27.08.1,3-.35,5.38.2,5.27,4.2-.22,7.24-.25,14.48-.19,21.72,0,2.87-1.2,3.85-3.91,3.77-7.13-.22-14.26.29-21.38-1C11.86,88.7,8,89,4.21,88.78c-1.22-.07-2.32.17-2.4,1.5a5.22,5.22,0,0,0,.71,3.07c1.34,2,1.47-.21,2-.77s1.42-.68,1.68.14c1.47,4.65,5.82,1.37,6.55,1,4.52-2.39,8.66-.39,12.91.06,6.33.66,6.13,5.18,5.74,9.82,0,.56.26.65.41.29.15-2.76.1-5.49.49-8.16.28-1.91.84-2.58,3.61-2,4.41,1,5.18,3.31,4.42,6.74-.83,3.71,2.14,8.31-2.38,11.17,3.42,5.26-.16,11.62,2.52,17.59,3.59-3.37,4.62-7,3-11-1.76-4.44,1.91-7.43,2.58-11.2.29-1.6,2.53-1,3.17.65a21.4,21.4,0,0,1,.7,4.21c.41-4.41,2.95-9.5-3.64-11.75-.42-.15-.68-1.25-.72-1.93-.22-4.14-.4-8.28-.5-12.43,0-1.63,0-3.48,2-4,5.92-1.53,9.55-7.7,16.15-7.88.92,0,1.82-1.45,2.85-.35s.24,2-.21,3c-2,4.42-3.87,8.91-6,13.26-.93,1.88-2,3.83-4.68,4-1.62.12-4.68-.9-4.42,1.39.32,2.73,3.28.55,5,.92l0,0c0,6.19.07,11.76,0,17.33,0,2.76-.62,5.19-4.44,4.25-2.54-.62-3.36,1.06-4.19,3.12-2.86,7.17-4.27,15.09-11.41,20a7.86,7.86,0,0,0-2.81,6.8c.24,3,.13,4.67-3.68,2.92-2-.95-4.83-1.29-3.43,3,1.07,3.33-.37,7.2,3.07,10.16,1.8,1.56,0,4-1.25,5.83-.62.93-2.13,2.71-.73,3.17,4.72,1.57,3.44,4.24,2.4,7.58-.71,2.26.73,4.75,2.21,6.48,6.36,7.44,4.89,17-3.55,21.9a1.25,1.25,0,0,0-.63,1.77c1.55,1,3.84-.55,6.07,2.13-6,.3-11.28,1.44-16.18.56-6.13-1.1-11.8.44-17.67.88v3.26C6.54,218,13.31,216.22,20.08,216ZM370,209.53c.9-4.19.56-8.81,3.67-12.75.26,5.81.6,11.62.78,17.42.12,4,.07,7.92,0,11.88,0,1.21.13,2.78-1.56,3s-1.93-1.27-2.27-2.48A36.26,36.26,0,0,1,370,209.53Zm-71.6-3a21,21,0,0,1,.08,12.66C296.26,214.65,297.2,211.38,298.4,206.5Zm-22.56-.76a4.8,4.8,0,0,1-4.63.34c-1.48-.56-1.07-2.05-1-2.74.38-1.93.61-3.34.94-4.73.5-2.11,2.1-2.28,3.77-1.82,1.9.51,1.33,1.82.6,2.92s-.77,1.83.24,2.76S277,204.84,275.84,205.74ZM51.46,200.05c2.3-2.07,5.6,1.22,8.56,1.63,1.88.26,4.48-.62,5.34,1.63,1,2.63,1.87,5.62,1.58,8.33s-3.29,2.85-5.66,3.34c-3.48-1.09-8.08-.17-8-6.35C53.31,205.76,48.24,203,51.46,200.05ZM139,97.37a63.45,63.45,0,0,0,0,9.75c.22,4.94-1.73,7.31-7,7.22-10.47-.18-21-.27-31.43.1-5.35.18-6.14-2.32-5.32-6.59.32-1.67,1.07-3.33,0-5.61-1.47,2.74,0,7.36-5,6.46-4.29-.77-5.14-4.27-4.34-7.41,1.43-5.56,6.56-.86,9.76-2.76-.93-2.48-3.06-1.7-4.52-1.44-4.28.77-7.77-1-11.29-2.91-.75-.4-1.82-.65-1.73-1.79.11-1.35,1.34-1.58,2.31-1.94a6.71,6.71,0,0,1,2.13-.36c17-.35,33.9-1.3,50.84.74C137.76,91.35,139.45,93,139,97.37ZM112.53,71.29c5-1.27,7.52,1.37,8.64,5.6.63,2.36.4,4.94.75,7.39.24,1.7-.1,3.06-1.88,3.19s-2.57-1.1-2.65-2.76c0-1,.76-2.49-.71-2.73-2.05-.32-1.45,1.5-1.54,2.64-.16,2-1.3,1.68-2.68,1.33-4.65-1.21-5.36-5.66-6.8-9.06-.59-1.39,1.8-3.42,4.65-2.21,1.44.61,3.5,2.59,4.63,1.21C116.78,73.66,112.63,73.38,112.53,71.29ZM93.67,62.92C94.74,55.87,97.89,53,105,53.06c7.57.06,15.18.14,22.52,2.34,4.34,1.29,7.29,3.53,8.27,8.64,1.38,7.24,1.32,14.76,4,21.75.87,2.21-.26,3.06-2.44,2.64-3.51-.67-7.22-.42-10.92-2.47,2.18-3.17,5.84-1.26,8-3.19.26-.85-.36-1.1-.85-1-5.73.93-8.79-1-10-7.16-1.12-5.87-6.66-5.44-11.4-5.86-6-.55-10,2.23-11.42,7.59s-4.16,6.21-8.76,4.55a10.69,10.69,0,0,0-2.15-.19c-2-.28-4.84,1.78-6-.5s.88-4.84,2.07-6.93c1.41-2.47,3.5-4.56,5.35-6.78C92.28,65.38,93.43,64.48,93.67,62.92ZM67.26,83.19c2.68-4.14,4.17-9.1,8.7-12,2-1.31,3.34-3.64,5.14-5.34,1.05-1,2.51-1.66,4-.83a2.16,2.16,0,0,1,.6,3.3c-4.56,6.41-8.47,13.35-14.74,18.38a14.13,14.13,0,0,1-1.65,1C66.05,87.12,66.21,84.81,67.26,83.19Zm-7.33,15a10.29,10.29,0,0,1,6.51-5.78c1.85-.51,2.48.7,2.48,2.46,0,3.05-2.48,5.24-6.37,5.26C61.41,100,59.09,100,59.93,98.2Zm-4-2c.27.09.44.36,0,0ZM39.61,212.32c-1.29-.11-2.59-.54-2.44-2.21.14-1.45.54-3.15,2.21-3.27,1.92-.15,1.85,1.78,2.22,3C41.79,211.44,41.29,212.46,39.61,212.32ZM36.8,194c0-1.18-.15-3,1.63-2.76,3.65.45,8.09-.21,9.55,5.51-3.75-.11-6.39-2.51-9.57-1C36.73,196.54,36.77,195,36.8,194Z" style="fill:#3b5556"/><path d="M87.23,188.8c0,.07,0,.12,0,.19l.11-.07Z" style="fill:#3b5556"/><path d="M432.41,133.3c1.48.14,3,.37,3.53,2,1.29,3.73,2,7.77-1.49,10.42-3.16,2.43-6.07,6.47-10.73,5.38-2.69-.62-5.38-.78-5.85,1.68-.56,2.92,2.45,3.16,4.91,3.41,13.69,1.37,27.43,1.36,41.14,1.49,6.05.06,8.24,1.6,7.14,7.52a2.24,2.24,0,0,0,1.44,3c1.74-5.85,1.44-11.75,1.51-17.6.09-7.19.51-7.53,7.85-7.37,4.31.09,8.5,1.74,12.92.78,1.42-.32,3.85-.91,4.14,1.2.35,2.51-2.1,2.3-3.88,2.53-4.2.55-4.2.59-3.08,4.7,2.18-3.17,4.92-4.16,6.17-2.24,2,3-.26,11.84-3.71,13.56-2.35,1.18-3.1,2.7-2.8,5.17.2,1.6.6,3.56-.09,4.82-4.85,8.82,1.47,16.9,1.45,25.37a1.93,1.93,0,0,0,1.69,1.85,1.71,1.71,0,0,0,1.2-.67c-.87-3.73,1.73-7.7-.46-11.23-3.61-5.83-3.58-15.39,1-16.45,8.16-1.88,6.82-5.63,4-10.84-.66-1.2-.89-3.07.43-4,1.52-1.11,2.59.43,3.67,1.33.87.71,1.54,2.27,3,.8C500,150.47,499.73,149.42,504,145c4.54-4.75,6.68-5,12.21-1a20.72,20.72,0,0,0,.75-7.61c-12.62,2.86-25-.1-37.35.28-2.41.08-5.69-1.24-5.08-5,1.19-7.38.7-14.8.86-22.2.14-6.1,2.91-8.83,9.13-9.18,5.23-.29,10.49-.06,15.73.14,3.92.15,8,1.46,9.85-3.91.5-1.49,2.38-1.43,3.83-1.49,2.71-.11,5.42-.24,8.14-.25,2.1,0,4.93-.51,4.9,2.67s-2.82,2.59-5,2.73c-3.8.26-7.74-.73-11.4,1.3a79.44,79.44,0,0,0,8.91.94c9.49.87,9.48.9,9.62,10.1,0,.58.3,1,1,1,2-1,1.34-2.78,1.26-4.31-.23-4.84,2-7,6.83-6.68,4,.3,7.93.65,11.9.63,2.29,0,6.4,1.84,6.48-.94s-4.14-1.2-6.43-1.33c-4.91-.27-9.73-.59-15.41-3.79h20a3.49,3.49,0,0,1,2.82,1.34c1,1.23,2.31,2,3.74.92,1.13-.82,1.09-2.24.75-3.51-.48-1.82-2-1.91-3.5-1.8-5.79.47-11.54-.22-17.31-.55-7.43-.41-8.21-.85-8.56-8.31a86.15,86.15,0,0,0-3.55-21.81c-.83-2.66-1.33-5.51,1.69-6.41s8-2.06,9.41,1.24c1.9,4.44,5.12,8.24,6,13.19,1.05,5.66,5.56,14.48,7.71,16.39.57-1.33-.12-2.51-.57-3.62-4.73-11.6-11.74-22.53-10.49-35.9a1.73,1.73,0,0,0-1.37-2,1.91,1.91,0,0,0-2.09,2c.55,8.7-4.69,4.69-8.32,3.75-1.24-.33-3,0-3.58-1.33.08-1.89,2.54-.78,2.46-3-3.66-.24-5.35-3.18-7.09-6.5-1.11,2.58-.15,4.44-.07,6.34.31,7.08,4.69,13.25,4.12,20.58-.32,4.25.53,8.55,1.19,12.85,1.63,10.53-.32,12.28-11.07,11.86-.54,0-1.08-.07-1.62-.07-4.7,0-5.47-2.55-4.06-6.39.36-1,1.32-1.87,1.47-2.87.53-3.71,2.07-8-.56-11-2.36-2.61-6.47-1.55-9.81-.61-1.26.36-3,2.45-1.65,2.84,7.07,2,4.54,7.84,5,12.15.41,4.09-3,4.77-6.36,4.67s-5.56-1.3-4.85-5.28c.4-2.17.53-4.39.89-7.59-3.16,3.28-1.8,6.67-2.89,9.38-1.36,3.4-5.29,2.18-7.62,3.74.64,1.79,1.89,1.46,2.89,1.52,1.79.1,2.7.93,2.53,2.74s-1.7,1.54-2.89,1.53c-2.72,0-5.44,0-8.13-.29-1.44-.15-3.47-2-1.83-2.61,4.6-1.8,2.41-5.9,3.85-8.65a104.22,104.22,0,0,1,9-14.76c.8-1.06,1.68-2-.35-3.12-5.08,8.21-10.23,16.31-15.11,24.57a13.54,13.54,0,0,0-1.9,7.81c.6,9.23-.4,18.42-.72,27.63-.15,4.1.47,9.43-6.17,4.31a2.12,2.12,0,0,0-1.06-.19c-18.24-1.12-36.48-2.2-54.76-2.27-3.08,0-5.48,1.24-5.74,5.45,2.31-.76,3.42-2.73,5.58-2.75C417.59,132.68,425,132.6,432.41,133.3Zm68.73,6.06a1.53,1.53,0,0,1,1.56,1.78,1.28,1.28,0,0,1-1.48,1.22c-6.88-2.11-13.92.73-20.78-.78a8.78,8.78,0,0,1-2.21-1.22C486,137.49,493.56,139.3,501.14,139.36Zm-5.75-45.54c2.67-.19,5.37-.24,8-.65,2.23-.35,3.92-.5,4,2.5.11,3.28-2.32,2.4-3.07,2.62-3.67-.29-6.34-.51-9-.7-1.28-.09-2.6,0-2.56-1.87S494.11,93.91,495.39,93.82Zm-39.1,53.91c-.79,2.19-1.43,5.79-4.69,5.82-2.73,0-2.93-3.06-3.11-4.94-.3-2.92,2.54-2.24,4.22-2.75C454.2,146.19,457,145.73,456.29,147.73Zm9.88-12c2.79.84,4.57,3.43,5.38,6.29a2,2,0,0,1-1.84,2.68c-2.84-.9-4.84-2.6-5.1-5.65C464.5,137.73,464.62,135.25,466.17,135.72Zm-1.65,11.47c1.21.29,2.42.63,3.65.85,1.59.29,2.63,1.05,2.69,2.78.05,1.26.17,2.63-1.34,3.14s-3.67,1.23-4.55-.07c-2-2.9-3.27-3.52-5.19-.08a1.61,1.61,0,0,1-2.73-.12,1.36,1.36,0,0,1,.82-2.13C460.5,150.65,460.78,146.26,464.52,147.19Zm-20.37-13.35c4.69.11,9.38.49,14.07.7,3,.13,4.24,1.84,4.14,4.58-.11,3-2,3.95-4.79,3.74-2-.14-4,0-6,0V143c-2.52,0-5.06.13-7.58,0-3.86-.24-5.38-2.89-5.25-6.29S441.93,133.78,444.15,133.84Zm-3.94,14.26c1.41-.37,1.62,1.09,1.6,2.16a4.69,4.69,0,0,1-3.27,4.74c-1.91.36-3-.46-2.56-1.14C437.22,151.82,437.42,148.82,440.21,148.1Z" style="fill:#3b5556"/><path d="M626.61,69A15.13,15.13,0,0,1,616,73.83c-6.18.43-7.88-4.29-8.61-10-1.77,1.88-3.25,3-4.13,4.49-2.22,3.77-6,3.53-9.48,4a2.75,2.75,0,0,1-3.2-2.31c-.31-1.69,1.2-1.93,2.45-2.23,2.08-.51,4.14-1.05,5-3.8-3.2-1-5.86,0-8.6.83-4.36,1.28-10.27-2.21-9.24-5.51,1.19-3.83,2.35-7.52,6.49-10.05,3.36-2,7.5-3.21,10.92-7a39.65,39.65,0,0,0-5.44,0c-5.22.88-9.35,1.36-10.53-6.09-.9-5.69-.59-7.37,5.16-6.58,1.1.15,2.3.3,3-.68.8-1.14.1-2-1-2.57-3.57-1.9-2.76-5.5-1.49-7.57,2.13-3.45,2.91-9.27,7.73-9.4,6-.15,4.22-2.08,2.47-5.23l-.23-.48h-.84a27.58,27.58,0,0,0-4.62.44,8.8,8.8,0,0,1-.68,1.33c-5,8.05-7.6,17.49-14.18,24.68-.87.95-1.62,3-1.18,4,1.64,3.67,1,8.36,4.8,11.07,1.87,1.32,2.26,2.75.87,5-4.63,7.56-3.72,14.15,2.67,20.09,2.68,2.5,3.4,4.6,2.87,8.7-.65,5.07-3.81,6.18-7.24,8.26C586.3,85.58,591.2,90,597,91.14c-2.16-2.47-5.51-3.82-5.89-7.31-.3-2.77-1.37-5.85,1.17-8.18,1.73-1.59,14.32-2.91,16-1.88,7.35,4.42,15,4,21.5-1,2-1.49,2.77-2.7.91-4.77C628.61,65.74,627.82,67.64,626.61,69Z" style="fill:#3b5556"/><path d="M543.9,241.58c.44-.12,1.05-.59,1.1-1,.16-1.05-.72-1.64-1.49-2-4.7-2.25-3.88-5.68-1.45-8.77,1.68-2.13,2.18-3.57.05-5.45-3.33-2.95-3.47-6-.47-9.39,1-1.09,2.52-2.52.54-4.13-2.68-2.17-2.66-5.79-4.49-8.58-.24,2.31-1.24,4.43.1,6.52,1.54,2.42.93,5,0,7.32a23.94,23.94,0,0,0-1.47,9.56,70.16,70.16,0,0,1-1.25,13.48c-.53,2.82-1.55,4.46-4.58,3.78-3.35-.74-3.26-3.63-2.19-5.57,2.16-4,1-9.05,4.72-12.5,1.28-1.19.87-3.46.08-5.16s-2.09-3.05-4.21-2.79c-2.67.33-1.55,2.49-1.58,3.87-.13,6,.14,11.91-1.63,17.72-.61,2-.19,4.6-3.43,4.49-3.69-.13-3-2.94-3-5.17-.06-5.29,0-10.58,0-15.87l-1.64,0c-1,5-.32,10.19-.48,15.28s-1.81,6.68-6.65,4.92a34,34,0,0,0-10.05-1.66c-8.3-.48-16.59-1.24-24.88-1.87-3.11-.23-5.58-2.91-9.52-.76-2.43,1.32-2.62-3.07-2.88-5.17s-1-4.51,1.65-5.69c.86-.38,1.69.24,2.26,1.07s.86,2.06,2.42,2.19c2.76-4.76-4-5.41-3.45-9.08-2-.22-3,1.71-4.71,2.23a3.85,3.85,0,0,1-1,.33c-5.77-.25-6.89,3.39-6.89,8.09,0,1.2-.26,3.49-1.32,3.07-3-1.2-5.5.71-8.25.54-10.43-.65-20.85-1.41-31.29-1.76-3.67-.13-6.66.19-4.4-4.89.35-.79,1.33-2.16-.47-2.58-1.56-.36-2.28.29-2.12,2.08.35,3.93-1.78,4.95-5.32,4.34-.95-.17-2.17-.37-3.56,1.63,48.62,3,96.39,9.32,144.77,12.63C539.67,242.68,539.67,242.7,543.9,241.58Z" style="fill:#3b5556"/><path d="M168.31,112c-.13.23-.58.28-.87.41-1.28-1.14.22-3.65-2.26-4.52-.4,3.46-.19,7.22-5.23,6.71.65,1.73,3.21,1.7,2.92,3.32-1.06,6.1-1.23,12.41-4,18.16-.52,1.12-1,2-2.36,1.27-.94-.51-1.91-2.52-2.75-.2-.66,1.79.93,2.08,2.35,2.76,3.48,1.65,4.06,5.57,1,7-3.38,1.53-3.36,3.4-2.56,6.44,1.12,4.23,1.82,9.32-.08,12.75-2,3.71.84,5.38.89,8,.06,3.64,1.85,4.94,5.24,6.17a55.13,55.13,0,0,1,8.44,4.18c1.09.63,1.61,3,3.27,1.35s1.32-5,.06-5.36c-3.8-1.19-4.94-5.37-8.62-6.55-2.71-.86-6.05-1.93-2.69-6,1.55-1.85-.34-3.25-1.17-4.79-3.75-6.92-1.83-12.41,5.09-13.76-.8-1.65-1.49-3.27-2.37-4.79-3.14-5.48-2.52-8.08,3.31-10.41,2.72-1.09,2.19-1.95,1.07-3.83-2.41-4.07-1.14-8.51-.42-12.66.6-3.44,3.67-.58,5.44-1.28a4.86,4.86,0,0,0,2-1.68c.77-1.07.71-3.11,2.88-2.39a3.47,3.47,0,0,1,2.37,3.84,5.93,5.93,0,0,0,3.11,5.85c2.52,1.51,3.46,4.13,3.81,6.88.39,3,2.15,5.7,2.8,8.19,1.21,4.58,6.78,7.95,4.16,13.68a1.8,1.8,0,0,0,2.28,2.55c6.07-1.76,8.6,1.11,8.88,6.75,1.87-.34,1.7-1.68,2.11-2.59,3-6.8,3-6.91-4-8.55a3.59,3.59,0,0,1-3.12-3.17l.16.14h0a.63.63,0,0,1,.11-.12h-.2c-2.78-4.26-4.83-8.73-4.34-14-1.4-.2-3.69,1.64-3.92-.82-.64-6.75-5.19-11.57-8.1-17.08C177.82,103.92,173.07,103.66,168.31,112Z" style="fill:#3b5556"/><path d="M195.27,131.37l-.21.16a.71.71,0,0,1,0,.14l.15,0C195.22,131.58,195.25,131.48,195.27,131.37Z" style="fill:#3b5556"/><path d="M247.39,126.5c2,.07,3.93,0,6.88,0-3,3.5-3.58,7.17-4.42,10.67-1.55,6.53-4.69,8.41-11.2,6.11-.82-.29-1.73-1.48-2.26-1.3-6.38,2.19-5.65-1.13-3.59-5.35-3-.31-4.15,1.35-4.93,3.1-1.59,3.57-4.36,4.27-7.9,4.1-4.69-.23-9.39-.25-14.08-.14-2.23.05-4.69-.16-6.3,2,13.79,1.1,27.62-.14,41.42.67,2.86.16,6.64-1.69,8.4,1.71s-3.44,3.13-3.9,5.29c-1.13,5.32-3,1.81-4.56-.09-.86,4.35-1.57,8-2.34,11.7-.6,2.85-.19,4.79,2.52,6.88,4.77,3.68,5,7.9,1.64,13,6.14.56,5.32-5.36,7.68-8,2.09-2.32-1.51-1.92-2.37-2.87-1.92-2.14-4.33-3.87-6.05-6.15-2.95-3.93-1.87-6.7,2.88-7.78,2.32-.53,4.73-.72,5.9-3.17q4.56-9.56,9-19.15c.55-1.19.74-2.51-.7-3.31-1.17-.64-2,.14-2.85.84-1.51,1.18-1.81,3.59-4.1,4,.62-10.29,3.59-11.74,14.54-6.58-2.6-5.09-6.09-8.29-11.34-8.28-16.46,0-32.87-.64-49.28-1.7-5.67-.37-9.52,3-10.82,8.65,6.14-4.7,13.2-4.8,20.61-4.89C226.39,126.37,236.88,126.09,247.39,126.5Z" style="fill:#3b5556"/><path d="M551.72,271.6c-5.09-4.16-12.12-3.56-15.66-8.94-.7,1-1.2,3.31-3.6,2-2.93-1.64-6.57-1.12-9.29-2.71-3.24-1.89-9.19-.44-9.2-6.82,0-.41-1.1-1.17-1.69-1.17-8.17.07-16.24-2.6-25.69-1.26,1.48,1.07,1.74,1.42,2.05,1.46,3.49.49,6.25,1.78,6.67,5.8.11,1-.26,1.84-1.29,2-3.54.6-4.95-1.39-6.35-4.39-1.06-2.23-3.26-1.81-4.36.7-3.21,7.29-3.66,7.47-11.39,4.3-3.24-1.32-4.32-1.13-7.25,1.26,4.35.44,4.32.45,5.08,4,.08.38.76.74,1.23.89,1.88.58,3.84,1.64,5.68,1.48,3.2-.27,5.4,0,6.58,3.57.82,2.48,3.85,3.16,5.34,1.53,2.34-2.56,5.07-2.26,7.83-2.67,3.57-.53,7.15-1,10.44-2.68a4.58,4.58,0,0,0,2.45-5c-.27-2.17-2.3-1.83-3.89-2-1.43-.13-3,0-4.21-.68-1.47-.81-4.82-.45-3.68-3.44.91-2.42,3.25-1.42,5.18-.82,13.25,4.12,26.23,9.21,40.09,11.16C545.58,269.61,547.84,271.94,551.72,271.6Z" style="fill:#3b5556"/><path d="M629.17,258.71c1.29-.44,3.41-.75,3.09-2.38-.38-1.9-2.56-2.33-4.37-2.52-16-1.7-32-3-47.92-5.18-10.51-1.45-21.38-.37-31.56-4.28-1.78-.68-3-.15-3.72,2.66,26.41,5.47,53.5,4.24,79.94,9.61-1,2.88-3.93,2.2-4.61,4.47-1,3.39-3.55,3.46-6.84,3.54-10.35.26-20.36-2.45-30.63-2.87a208.5,208.5,0,0,1-27.24-2.54c-11.3-2-22.51-4.11-34.07-3.08,8,.74,15.64,3.6,23.85,3.62,8.82,0,17.4,3.13,26.1,3.68,13.81.87,27.52,2.51,41.28,3.72,3,.26,5.08,1.11,5.59,4.58a36.93,36.93,0,0,0,2.31,7.19c.31.84,1,1.68,2.07,1.28s.66-1.45.35-2.26c-.51-1.35-1.17-2.66-1.59-4C618.65,265.64,620.83,261.56,629.17,258.71Z" style="fill:#3b5556"/><path d="M563.66,147.66c-3.2-3.13-6.86-4.09-6.86-8.42,0-7.51-3.45-10.33-10.94-9.38-1.65.21-4.25.34-4,2.6.16,1.75,2.56,1.55,4.15,1.66,1.8.12,3.63,0,5.41.25,2.93.43,4.56,3.12,3.17,5-4.16,5.68-1.93,11.4-1.19,17.17.18,1.48.58,3.11-.65,4.07-5.25,4.1-3.78,9.58-3.24,14.86.11,1.1.49,2.26-.42,3-5,4.46-5.26,11.72-9.66,16.54-.65.72-.83,1.77.19,2.27s1.71-.3,2.11-1.14c.83-1.74,1.93-3.24,4-3.1,5.59.35,4.86-3.05,3.55-6.25-1.8-4.38-.08-5.58,4-5.44,1.33,0,3.23.78,3.81-1s-1.42-2.32-2.61-2.82c-4.76-2-3.47-5.94-2.79-9.29.71-3.5,2.68-6.36,7-6.28,1.44,0,3.1.56,4.3,0,8.31-3.67,14.6-.48,21.12,4.77,4.44,3.57,14.56,3.37,18.33.94-11.1-1.33-23.1-.78-26.24-16-.35,5.84-2.47,7.8-7.46,6.44a6.74,6.74,0,0,0-3.72.47c-4.41,1.61-7.1,0-8-4.38S556.81,146.38,563.66,147.66Z" style="fill:#3b5556"/><path d="M380.57,59.33c-3.05,1.39-2.49,3.22-2.66,4.72s-.64,2.27-2.26,2.47-4.15-.81-4.55,1.6c-.32,1.93,2,2.13,3.43,2.87s2.32,2.11,1.47,3.57c-1,1.7-2.44,1.2-3.53-.09-.65-.76-1.07-2.38-2.25-1-.87,1-1.88,3.11-1.42,3.83,3,4.73.8,9.93,2,14.79.23-3,.22-6,.23-9,0-2.53.36-5,3.67-4.79,2.92.17,3,2.5,3.17,4.78.47,6.37-1.32,12.59-1.24,18.9.05,4.66-2.68,8.86-6.14,8.91-3.79.06-5.24-4.83-5.27-8.89,0-6,0-11.9,0-17.85-.27,6.6,0,13.22-.34,19.82-.32,6.37-1.65,7.34-6.51,5.8.57,3.13,3.84,4,4.76,6.8,1.57-3,2.49-6.61,6.7-3.26,1.81,1.45,2.84-.19,3.94-1.46,2.45-2.83,3.74-1.43,4,1.44a46.07,46.07,0,0,1-.93,15.61,3.35,3.35,0,0,1-1.42,2.13c-6.78,2.61-12.88,7.29-20.6,7.11-3.53-.08-4.74,1.47-4.16,4.86,4.28-.85,7.18-5.95,11.4-4.3s6.34.48,8.93-2.21a5.74,5.74,0,0,1,3.82-1.8c4.26.22,4.88-2.54,4.74-5.56-.36-8,.69-15.83-.56-24-1.61-10.44-.14-21.34,1.11-32,2.28,0,1.33,2.76,3.46,2.73.31-2,2.48-4.08.14-5.94C380.36,67.31,379.49,64,380.57,59.33Z" style="fill:#3b5556"/><path d="M433.6,185.13c-.43,3.92-3.35,7.4-6.48,9.69-4.46,3.26-4.23,7.4-3.18,11.6.72,2.87,2.06,6.2,4.23,7.93,3.85,3.07,6.74,8.74,12.84,7.41a10,10,0,0,1,8.88,1.82c-1.57-2.75.06-5,.79-7.56-5.42,2.09-6.57,2.22-11.58,2.07-3.13-.09-5.22-2.34-7.8-3.54-2.21-1,.49-3-.29-4.31-1.21-2-.28-4.25-.84-6.35-2.08-7.83-1.44-9.28,5.73-12.34,2-.83,2.89-1.13,1.8-3.7-1.44-3.41-.83-6.41,4-6.74a6.66,6.66,0,0,0,5.6-3.92c-1.4.14-2.8.32-4.2.41C438.18,177.9,434.28,178.88,433.6,185.13Z" style="fill:#3b5556"/><path d="M494.28,64.49c2-5.5,6.17-7.36,11.73-7.89,4.14-.4,8.26-.84,12.42-1,1.07,0,2.43-.22,2.45-1.58s-1.33-1.43-2.4-1.65c-1.84-.38-4.05.55-5.46-1.46,1.05-2.89,4.37-.7,6-2.81-7.23-1.26-14.6.39-22.2-3,2.18,7.94-2.89,13.72-4.6,20.35C493.56,65.74,494,65.13,494.28,64.49Z" style="fill:#3b5556"/><path d="M472.24,175.12c-1.81.11-4.38,1.3-5.23-1.28-.92-2.81-2.95-2.24-4.81-2.26-2.72-.05-5.47.07-8-1.15s-4.54-.12-6.58,1.06c-.9.51-2.23,1-1.58,2.35.75,1.6,2.06,1.19,3.17.38,4.67-3.4,8.33,3.05,12.81,1.25,1.67,5.78,6,3.15,9.37,2.76s6.35-.4,7.39,3.49-2.49,3.6-4.59,4.54c-1,.46-2.19.91-1.86,2.23a2.19,2.19,0,0,0,2.89,1.76c4.75-2.12,6.87,1.16,8.9,4.62,1.46-2,.48-3.32-.45-4.22-2.07-2-2.18-4.36-2.09-7C481.8,177.45,478.64,174.73,472.24,175.12Z" style="fill:#3b5556"/><path d="M335.36,55.1c.1-2.08-.65-5,2.13-5.44,3.83-.56,6,2.89,8,5.36S344,57.36,343,58.39s-2.09,1.78-1.48,3.16c.84,1.9,2.13.39,3.17.08,2.84-.85,5.62-3.16,8.31.58,1.18-5.6-4.14-7.89-4.6-12.2,2.71,2.75,4.44,1.54,6.47-1.13,3-3.9,3.06-8.76,4.77-14.72,1.8,12.19,1.8,12.19,7.32,11.87-1.52-2-4.48-2.83-4.26-5.9.86-11.79-1.9-23.81,2.08-35.41.63-1.82-.35-2.69-1.43-3.66-1.24-1.12-2.26-.54-3.29.42s-2.74,1.76-.93,3.34c1.59,1.4.89,3,.72,4.53-1.08,9.66-2.14,19.32-3.41,28.95a7.37,7.37,0,0,1-5.21,6.31c-2.11.76-4.76,1.73-2.91,5-4.16-1.21-8.68-1.82-9.78-7.33-.21-1.07-1.8-1.68-3.22-1.22a2.34,2.34,0,0,0-1.88,2.81c.37,2.59-.81,4.91-1.24,7.35a14.43,14.43,0,0,0,2.26,11.16C336.05,59.73,335.24,57.37,335.36,55.1Z" style="fill:#3b5556"/><path d="M389.53,132.64c-1.4,5.28,3.67,4.74,4.92,7.36,1.53,3.22-2.43,6.29.56,10.18,4.13,5.36,8.38,7.51,15.11,6.48,3.37-.51,4.93-1,4.72-4.61-.26-4.28-2.8-3-5.31-2.55-8,1.44-11.26-.74-12.41-8a7.83,7.83,0,0,0-3-5,5.93,5.93,0,0,1-2.49-4c-.77-5.85-4.21-4.31-7.72-2.7C386.48,129.59,390.79,127.9,389.53,132.64Z" style="fill:#3b5556"/><path d="M504.59,371.6l.35.22-.2-.3Z" style="fill:#3b5556"/><path d="M542.63,359.56a.91.91,0,0,0,0,.17,1.4,1.4,0,0,1,.17-.09Z" style="fill:#3b5556"/><path d="M513.39,381c-2.48-3.35-4.71-7-8.45-9.16,3.9,5.74,7.72,11.54,11.77,17.18a2.52,2.52,0,0,0,4.22-.06c6.4-9.66,14.37-18.07,21.31-27.29a4.12,4.12,0,0,0,.38-1.92c-2.56,1.08-3.42,4.27-6.26,5.61-1.19-10.25-.08-20-.82-29.72-1.34,7.08-2.2,14.32-1.53,21.41,1,10.46-4,17.89-10.49,24.89C518.93,386.86,517.58,386.63,513.39,381Z" style="fill:#3b5556"/><path d="M398.87,180.26c-.53,5-3.36,5.44-7.67,2.51a27.27,27.27,0,0,0-2.61-1.88,2,2,0,0,0-2.51.14c-1,1.14,0,1.92.75,2.68a23.71,23.71,0,0,0,12.33,6.71c-3.45-2.53-2.26-5.2-.85-4.91,3.92.83,2.79-1.65,2.88-3.35.36-6.25,2.66-11.43,11.24-9.69a10.43,10.43,0,0,0,3.14-.34c-5.93.25-5-4.09-5-8.48C405.25,169.2,399.67,172.6,398.87,180.26Z" style="fill:#3b5556"/><path d="M365.29,59.52c1.52,2.13,3.36,3.91,6.33,2.65.89-.38,1.52-1.2.64-2.1-1.47-1.52-3.9-2.84-.64-4.89,1.81-1.14,4.43-3.53,5.4-3,5.21,2.84,4.42-.92,4.85-4.72.79-3-1.87-4.09-4.86-4.75-3.81-.85-2.4,2.39-3.15,4.08-1.48,3.33-3.52,6.4-6.8,8.19C365,56.11,363.66,57.23,365.29,59.52Z" style="fill:#3b5556"/><path d="M635.8,257.06c1.59-.32,3,2.34,4.72.22,5.39-6.51,13.08-7.45,20.69-8.55,3.84-.56,5.08,1.32,4.95,5-.2,5.64,0,11.3,0,17h2.15c0-5.32-.12-10.65,0-16,.11-3.74.16-7.74,5.7-8.14-3.52-2.92-3.57-3-6.34-.91a5.23,5.23,0,0,1-3.46,1.28C653.37,246.37,644.15,250.38,635.8,257.06Z" style="fill:#3b5556"/><path d="M418.63,247.14c1.3-1.1,2.75-.27,4.16-.11,7.7.92,15.41,1.79,23.11,2.7,3.41.4,7.43-1.18,9.78,2.93a1.51,1.51,0,0,0,1.3.25c2.52-3.75,6.84-.83,11-3.26-6.17-.52-11.31-.62-16.34-1.44-11-1.8-22.15-2.7-33.28-3.56-1.11-.09-2.24-.48-2.91.59a2.22,2.22,0,0,0,.09,2C416.5,248.74,417.54,248.07,418.63,247.14Z" style="fill:#3b5556"/><path d="M350.39,116.29c1.7-.87.05-2.17-.21-3.26a17.79,17.79,0,0,0-.89-2.54c-.55-1.38.24-4.07-3.08-2.58s-7.27,5.65-5.8,7.18c4.39,4.54,0,6.49-1.53,9-1.4,2.35-5.11,4.12-3.23,7.16s4.78-.5,7.79-.56c-2.66-2.81-2.19-5.05-.08-7.61,1.83-2.22,1.69-5,1-7.75-.34-1.29-1.8-2.81.32-3.62s2.79.85,3.45,2.46C348.53,115.19,348.57,117.22,350.39,116.29Z" style="fill:#3b5556"/><path d="M494.28,128.87h0c2,2.26,4.45,2.55,7.23,1.5,3.21-1.2,1.92-3.9,2-6,.11-4.13,0-8.28-.2-12.42-.13-2.3-.35-5-3.68-4.9-2.91.1-5.43,1.19-5.49,4.65-.11,5.71-1.06,11.44.14,17.14h-.06A.46.46,0,0,1,494.28,128.87Zm2.4-15.53c.65-1.59-.53-4.6,2.63-4.17,2.54.35,2.26,2.89,2.25,4.83q0,4.84-.24,9.69c-.25,5.52-1.34,6.32-7,5.13C497.08,124,494.64,118.32,496.68,113.34Z" style="fill:#3b5556"/><path d="M33.84,109.21c-6.55-1.53-13.12-.7-19.65-1.17-4.27-.3-8.75-.9-13.12.68.82,1.81,2,1.65,3,1.7,9.6.47,19.34-1,28.74,2.3a5.43,5.43,0,0,0,5-1C37,110.13,35.86,109.68,33.84,109.21Z" style="fill:#3b5556"/><path d="M37.8,111.72s0,0,0,0v0l.15-.09,0,0Z" style="fill:#3b5556"/><path d="M525.42,120.08c-.72.66-1.3,1.48-.73,2.33.7,1,1.7.37,2.32-.19a4.13,4.13,0,0,1,5.4-.53c4,2.25,8.29,1.54,13.28,1.71C541.63,117.22,530.11,115.78,525.42,120.08Z" style="fill:#3b5556"/><path d="M512.17,130.29c2.23,1.7,4.43-.45,6.54,0-.57-5.87.53-11.68.66-17.52,0-1.87,1.07-4.14-2-4.73s-4.78.36-5.87,3.29c-1.52,4.1-.67,8.41-1.53,12.59,1.53-1.51,1.46-3.49,1.74-5.36a53.84,53.84,0,0,1,1.11-6.36c.43-1.54,2-2,3.47-2.11a1.25,1.25,0,0,1,1.41,1.29c-.14,4.86-.36,9.71-.54,14.57C517.09,129.1,513.19,127.83,512.17,130.29Z" style="fill:#3b5556"/><path d="M518.89,130.35l-.18,0c0,.07,0,.14,0,.21Z" style="fill:#3b5556"/><path d="M453.55,202.88c-3.54,2.21-7.44,2.14-11.4,2-2.92-.1-5.92-.7-10.15.79,8.66,2.21,15.89,2.78,23.11.67,1.18-.35,4,.37,3-2.4C457.33,202,455.41,201.73,453.55,202.88Z" style="fill:#3b5556"/><path d="M557.73,130.67c-.66.51-.34,1.78.34,2.45a8.76,8.76,0,0,1,2.36,9.39c6-3.89-1.28-9.32,2.07-12.75,3.58-3.67,2-8.37,4-12.28C563.06,121.6,562.19,127.29,557.73,130.67Z" style="fill:#3b5556"/><path d="M169,209.58c0,.49.83,1.2,1.39,1.33a1.24,1.24,0,0,0,1.4-1.27c.36-6.65,1.65-13.34-.95-19.89C167.87,196.16,168.68,202.9,169,209.58Z" style="fill:#3b5556"/><path d="M94.1,176.51c-1.82,1.49-5.24,2.93-4.14,4.94,2.22,4.05-.37,5.43-2.52,7.39C95,190.17,97,186.08,94.1,176.51Z" style="fill:#3b5556"/><path d="M87.24,188.81l.12.11a.6.6,0,0,1,.08-.08Z" style="fill:#3b5556"/><path d="M353.66,192.35c-2.33-.18-1,2.07-1.43,3.17-2.07,4.88,2.59,11.41-4.05,15,4.39,3.13,6,1.69,5.59-2.93a34.56,34.56,0,0,1,1.05-11.72C355.17,194.52,355.58,192.5,353.66,192.35Z" style="fill:#3b5556"/><path d="M611.86,30.68c5.9,1.39,10.56-1.3,15.08-4.3,1-.64,2.46-1.46,1.36-2.94-.75-1-2.08-.44-3,0C620.8,25.82,616.34,28.27,611.86,30.68Z" style="fill:#3b5556"/><path d="M583.65,98.63c-1.88-3.83-7.14-3.8-6.63-8.91-1.64,5.81-10.4,5.07-10.27,13.94C571.21,95.45,576.89,95,583.65,98.63Z" style="fill:#3b5556"/><path d="M610.51,157c-3.56-3.17-3.29-7.8-4.17-12.17-5,6.4,1.4,12.59-.34,19.2C609.87,163,608.49,158.94,610.51,157Z" style="fill:#3b5556"/><path d="M536.44,309.49V281.67c-.78,9.24-2.22,18.49-1.37,27.79Z" style="fill:#3b5556"/><path d="M293.5,126.66c.92-2.33,3.21-2,5.14-2s3.77,1,5.4.21c-6.82-7.66-11.3-.42-17.12,2.78C289.71,128.53,292,130.53,293.5,126.66Z" style="fill:#3b5556"/><path d="M341.89,139.93c-1.42-.61-3.35-2.67-4.32.22a3.13,3.13,0,0,0,2.8,4.32c2.56.23,4.66,1.57,8.42,2.77C346.54,143.53,344.78,141.16,341.89,139.93Z" style="fill:#3b5556"/><path d="M351.82,104.53h1.71V69.82C352.76,81.54,352.71,93,351.82,104.53Z" style="fill:#3b5556"/><path d="M523,216.88,511.64,208C512.13,214.16,518.23,218.47,523,216.88Z" style="fill:#3b5556"/><path d="M274.55,141.25c1.22-.08,9.65-10.73,9.41-11.82-.1-.45-.52-1.19-.76-1.17-.64,0-1.64.24-1.83.67-1.67,3.83-4.88,6.46-7.35,9.66C273.34,139.49,272.42,140.88,274.55,141.25Z" style="fill:#3b5556"/><path d="M475.71,205.91c.65,1.44,2.23,1.74,3.58,2.19s1.82-.29,1.79-1.67C481,203.78,484,203,484.89,200c-3.09,1.18-5.64,2-8,3.14A2.18,2.18,0,0,0,475.71,205.91Z" style="fill:#3b5556"/><path d="M488.42,127.88c1.83-7.86,1.14-14.71-1.83-19.08C488.3,114.58,486.54,120.71,488.42,127.88Z" style="fill:#3b5556"/><path d="M656.29,209.7c-4.28,6.29-6.73,6.78-15,3.79,3.37,2,6.73,4.68,11.18,2.81C655.13,215.17,657.51,213.51,656.29,209.7Z" style="fill:#3b5556"/><path d="M250.31,193.12c-4.54-.85-4.75,2.2-5.64,5,2.5-2.08,5.13-3.27,8.34-2.91,2.38.27,4.55-.6,6.76-1.23C256.67,192.8,253.38,193.7,250.31,193.12Z" style="fill:#3b5556"/><path d="M259.77,194l.1,0,0,0,0-.08h-.12Z" style="fill:#3b5556"/><path d="M618.39,40.74c5.3,3.9,12.12,3.33,17.39-.93C630.5,42,625,41.76,618.39,40.74Z" style="fill:#3b5556"/><path d="M667.39,482.72c5.3-.66,10.83.23,16.06-1.39C677.87,479.43,672.56,480.28,667.39,482.72Z" style="fill:#3b5556"/><path d="M523.64,133.35c1.15.77,2.29-1.78,1.4-3-1.4-1.9.75-3.76-.24-5.47-4.1-.22-2.21,5.65-5.94,5.61C517.78,135.28,522.13,132.32,523.64,133.35Z" style="fill:#3b5556"/><path d="M518.89,130.35l-.17.17h.14A1,1,0,0,0,518.89,130.35Z" style="fill:#3b5556"/><path d="M28,120.44c-1.18,3.9-2.17,7.11.15,10.07a2.3,2.3,0,0,0,3.41-.24c2.31-3,2.2-6.09-.64-8.88a48.05,48.05,0,0,1,.75,5.15c.06,1.17.14,2.81-1.58,2.9-2,.12-1.92-1.6-2.16-3C27.63,124.67,29.67,123,28,120.44Z" style="fill:#3b5556"/><path d="M343.85,206.92c-.15-5.94,5.45-9.71,6.23-15.3C346.7,196.23,341.67,200.2,343.85,206.92Z" style="fill:#3b5556"/><path d="M170.43,156.06c4.67,2.88,9.44-1.78,14.17-.32C179.89,153.6,175.2,156.25,170.43,156.06Z" style="fill:#3b5556"/><path d="M640.88,273.87c1.19-4.5,0-8.56-2-12.45C637.3,266,638.79,270,640.88,273.87Z" style="fill:#3b5556"/><path d="M641.71,90.73c-4.58,3.29-10.11,3.94-15.28,5.55A16.12,16.12,0,0,0,641.71,90.73Z" style="fill:#3b5556"/><path d="M629.63,222.82l-11.6,2,.21,1.48C622.34,227.78,625.84,226.74,629.63,222.82Z" style="fill:#3b5556"/><path d="M248.53,211.64c-2.87-4-6.65-2.91-10.39-2C241.53,210.44,244.58,213.43,248.53,211.64Z" style="fill:#3b5556"/><path d="M360.48,69.69V93.24h.45V69.7Z" style="fill:#3b5556"/><path d="M645.83,156.1a95.9,95.9,0,0,1-9.3,6.06C641.57,163.19,644.2,160.4,645.83,156.1Z" style="fill:#3b5556"/><path d="M29,71.49c-2.17,8.87-1.39,12.28,2.81,12.64C28.06,80.79,30.48,76.53,29,71.49Z" style="fill:#3b5556"/><path d="M121.61,137.85c8.28,1.13,9.71-1.12,7.64-9.13C130.39,133.81,128.29,136.83,121.61,137.85Z" style="fill:#3b5556"/><path d="M675.08,299.27c-1.15.1-2.28.54-1.78,1.93a4,4,0,0,0,3.56,2.82c1.51.1,1.43-1.23,1.48-2.29C678.29,299.53,676.88,299.11,675.08,299.27Z" style="fill:#3b5556"/><path d="M13.38,72.56c-.57,3.44-1,6.86.58,10.2C14.27,79.34,15.1,75.89,13.38,72.56Z" style="fill:#3b5556"/><path d="M112,123.06a94.63,94.63,0,0,1,1.58,10.19C114.25,129.68,115.78,125.9,112,123.06Z" style="fill:#3b5556"/><path d="M316.39,203.93c1-.52,2.8-1,2.07-2.61s-2.2-.94-3.2-.16a10.23,10.23,0,0,1-5.83,2.49C311.85,204,314.18,205.09,316.39,203.93Z" style="fill:#3b5556"/><path d="M369.67,116.8c-2.65,4.55.67,6,3.92,7.58C372.43,121.81,370.29,119.72,369.67,116.8Z" style="fill:#3b5556"/><path d="M665.71,184.87c-3.79-2.58-6.6-4.34-10.71-1.84C658.45,184.59,661.47,184.38,665.71,184.87Z" style="fill:#3b5556"/><path d="M214.47,184.59c-2.46-.5-4.9-1.11-7.62.74C210.36,188.27,212.45,186.65,214.47,184.59Z" style="fill:#3b5556"/><path d="M442.31,162.45c-3.47,2.92-2.68,5.35-1.14,8.5C442.86,168.25,442.51,165.88,442.31,162.45Z" style="fill:#3b5556"/><path d="M395.22,361.53c-4.32,4-8.52,8.14-10.72,13.76A31.93,31.93,0,0,0,395.22,361.53Z" style="fill:#3b5556"/><path d="M384.31,375.74c.06-.16.13-.3.19-.45l-.35.28Z" style="fill:#3b5556"/><path d="M8.08,271v63.48H9.6c-1-21.16.08-42.32,0-63.49Z" style="fill:#3b5556"/><path d="M243.3,386.1c-.47,13.25-.88,26.51.5,39.75C246.36,412.57,244.21,399.34,243.3,386.1Z" style="fill:#3b5556"/><path d="M347.85,266.7c-.21,10.06-2.05,20.09,0,30.19Z" style="fill:#3b5556"/><path d="M170.5,242.52v30.6C171.07,262.92,172.92,252.71,170.5,242.52Z" style="fill:#3b5556"/><path d="M588,529.22c-9.28.79-18.33,3.4-27.68,3.75,11.48.43,22.69-1.86,34-3.37C592.21,528.68,590.09,529,588,529.22Z" style="fill:#3b5556"/><path d="M594.3,529.6h0l.1,0Z" style="fill:#3b5556"/><path d="M9,243.55c2,.1,1.43-2.41,1.51-3.94a9.81,9.81,0,0,0,.08-1.07c-.25-2.95,2.11-7.92-1-8.28C7.2,230,8.12,235.55,8,237.81c.14,1.15.14,1.52.23,1.86C8.5,241,6.53,243.42,9,243.55Z" style="fill:#3b5556"/><path d="M578.1,404.85c-.34-1.72-.39-2.39-.6-3-4.65-13.54-12.89-25.12-20.25-37.18-1.17-1.91-3.33-2.09-4.52-.32-3.23,4.83-6.09,9.92-9.1,14.91l1.2.78c2.21-3.42,4.5-6.79,6.62-10.27,2.5-4.12,3.81-4.19,6.28-.11,2.89,4.77,5.58,9.67,8.73,14.26,1.52,2.21,2.59,4.4,2.4,7C568.38,397.51,572.91,400.67,578.1,404.85Z" style="fill:#3b5556"/><path d="M423.33,329.57c7.69,12.36,16.6,23.44,23.26,36C447,359.88,428.67,332,423.33,329.57Z" style="fill:#3b5556"/><path d="M476.09,440.54c-5,5.84-4,19,1.86,24a2.27,2.27,0,0,0,1.89.48c1-.47.87-1.45.3-2.27-5-7.08-6-14.63-2.78-22.68C476.88,440.2,476.34,440.24,476.09,440.54Z" style="fill:#3b5556"/><path d="M477.43,439.9a1.59,1.59,0,0,0-.07.2l.22-.05Z" style="fill:#3b5556"/><path d="M599,442.56c-1.77-4.57-3.5-9.16-5.34-13.71a2.34,2.34,0,0,0-3.07-1.45,1.36,1.36,0,0,0-.68,2.17C592.67,434,593.6,439.64,599,442.56Z" style="fill:#3b5556"/><path d="M580.72,409.2c1.76,5.66,4,11,8.14,15.28C587.3,418.76,585.3,413.28,580.72,409.2Z" style="fill:#3b5556"/><path d="M417.75,398.6c1-.27,1.93-1,1.16-2.37-1.91-3.49-1.23-7.36-1.53-11.08-.15-1.8-.15-1.8-1.61-4.35-1,5.46.11,10.76.68,16.07C416.54,397.68,416.37,399,417.75,398.6Z" style="fill:#3b5556"/><path d="M437.16,329.06l6.39,10.62C444,334.58,440.93,331.63,437.16,329.06Z" style="fill:#3b5556"/><path d="M298.18,414.73c-4.87,2-8.9,4-13.13,5.42-4.06,1.33-4.33,3.11-1.39,6.16C286.11,419.35,293.81,419.87,298.18,414.73Z" style="fill:#3b5556"/><path d="M363.26,427.73c3.85,6.38,4.2,6.23,9.93,5.5-11.26-11.53-11.26-11.53-14.74-9.65A9.49,9.49,0,0,1,363.26,427.73Z" style="fill:#3b5556"/><path d="M104.78,98.73c3.16,1.4,8.47-.21,7.36,6.39-.88,5.25-4.72,2.19-7.84,3.38,3.89,1.6,6.73,1.51,9.17-1.39,1.78-2.12,1.46-4.41.24-6.52C111.52,96.81,108.1,98.14,104.78,98.73Z" style="fill:#3b5556"/><path d="M125.44,98.83c-2.12.8-2.47,2.37-1.47,4.4,1.35-3.06,4.06-2.77,6.4-2.26,3.73.82.21,4.44,2.51,6.68.3-3.16,1.69-5.81-.91-8.25C130,97.51,127.66,98,125.44,98.83Z" style="fill:#3b5556"/></g></svg>