<svg xmlns="http://www.w3.org/2000/svg" viewBox="0 0 1034 768"><g id="Spain"><rect x="49.18" y="78.85" width="935.28" height="587.29" style="fill:none;stroke:#cb6620;stroke-miterlimit:10;stroke-width:5.704659476119662px"/><path d="M984.46,78.85s18.25,328.88-289.8,511.43S32.92,580.29,49.18,305C62,88.84,281.65,49.47,341.54,98.25c0,0,77.59,49.06,69.6,130.06s-95.84,81-121.51,59.05c-21.11-18-15.69-58.76,5.14-64.18,25.1-6.56,40.21,11.7,26,24.82-15.12,13.69-26.81-7.71-12.55-14.27" style="fill:none;stroke:#cb6620;stroke-miterlimit:10;stroke-width:5.704659476119662px"/><line x1="412" y1="666.15" x2="412" y2="78.85" style="fill:none;stroke:#cb6620;stroke-miterlimit:10;stroke-width:5.704659476119662px"/><line x1="49.47" y1="299.62" x2="412" y2="299.62" style="fill:none;stroke:#cb6620;stroke-miterlimit:10;stroke-width:5.704659476119662px"/><line x1="275.94" y1="78.85" x2="275.94" y2="299.62" style="fill:none;stroke:#cb6620;stroke-miterlimit:10;stroke-width:5.704659476119662px"/><line x1="406.86" y1="220.9" x2="275.94" y2="220.9" style="fill:none;stroke:#cb6620;stroke-miterlimit:10;stroke-width:5.704659476119662px"/><line x1="326.14" y1="299.62" x2="326.14" y2="220.9" style="fill:none;stroke:#cb6620;stroke-miterlimit:10;stroke-width:5.704659476119662px"/><line x1="275.94" y1="252.84" x2="326.14" y2="252.84" style="fill:none;stroke:#cb6620;stroke-miterlimit:10;stroke-width:5.704659476119662px"/></g></svg>